<svg width="239" height="81" viewBox="0 0 239 81" fill="none" xmlns="http://www.w3.org/2000/svg">
<path d="M31.1656 40.3146C31.8101 39.075 32.4668 37.8411 33.0973 36.5957C33.3552 36.0859 33.5989 35.5626 33.7781 35.022C34.6423 32.4056 33.6634 30.4148 31.0327 29.264C26.1016 27.1071 20.9288 26.8214 15.6533 27.4393C14.5454 27.5687 13.5 27.5358 12.4787 27.1419C10.3959 26.3367 8.13987 26.3637 5.99059 25.8598C3.62981 25.3056 2.20568 23.3419 0 22.5C2.1513 23.3824 4.31872 22.7722 6.43577 22.8476C10.8471 23.004 15.2564 23.1855 19.6779 23.1024C22.2502 23.0542 24.8628 23.2106 27.4008 23.6103C29.7676 23.9829 31.7921 25.4871 34.1831 25.9428C34.7088 26.0432 35.2063 26.2672 35.72 26.4294C36.0866 26.5452 36.5942 26.6804 36.7916 26.3831C37.8289 24.8268 39.1363 25.7072 40.3811 25.9409C40.7477 26.0104 41.1163 26.0703 41.4829 26.1359C41.8737 26.6379 40.6913 27.0319 41.3722 27.4644C41.8959 27.7984 42.6351 27.7791 43.0702 27.4528C44.309 26.5221 45.86 26.8001 47.2016 26.3135C47.8421 26.0818 48.7224 26.7055 49.0326 26.5202C51.4417 25.0778 53.6535 26.6959 55.9156 26.8735C58.2482 27.057 60.5062 28.0089 62.8408 28.3371C66.6297 28.872 70.3079 29.8684 74.0606 30.5326C74.7293 30.6504 75.4384 30.5519 76.4999 30.5538C72.5418 32.2299 68.8032 33.1316 64.8068 32.701C63.4592 32.5562 62.1237 32.5157 60.7721 32.6566C59.4688 32.7937 58.234 32.589 56.9771 32.1372C52.2636 30.4438 47.4333 29.5556 42.3814 30.4863C41.4447 30.6581 40.8102 31.0115 40.1656 31.78C38.6891 33.541 37.0313 35.217 34.8034 36.1361C34.0098 36.4644 33.6915 37.0726 33.2665 37.6442C32.5937 38.5498 32.2674 39.6716 31.4657 40.5C31.367 40.4382 31.2683 40.3764 31.1696 40.3146H31.1656Z" fill="#891F1B"/>
<path d="M238.357 29.439C237.518 29.1865 236.648 29.2458 235.791 29.2401C234.912 29.2343 235.648 29.6781 235.62 29.9879C232.885 29.5002 230.156 28.7868 227.469 28.4464C223.665 27.9644 220.842 25.8529 217.544 24.5753C215.812 23.904 214.039 23.6936 212.189 23.5425C209.331 23.3091 207.911 24.9234 206.288 26.7422C204.609 28.6223 204.353 30.7089 204.162 33.0002C204.922 29.6685 203.432 26.8953 202.076 24.057C201.697 23.2633 201.31 22.6799 200.529 22.2247C196.407 19.8263 191.903 19.3845 187.234 19.9009C185.727 20.0673 184.341 20.0138 183.032 19.2162C182.482 18.8796 181.82 18.7668 181.165 18.7629C178.994 18.7476 177.103 17.7703 175.092 17.2023C174.9 17.1487 174.596 16.9823 174.594 16.8656C174.577 15.655 173.381 15.7334 172.5 15.1826C176.709 15.0602 180.727 14.7752 184.729 15.3585C185.775 15.5115 186.774 15.3107 187.79 15.2113C192.036 14.7924 196.197 14.8536 200.144 16.7432C201.001 17.1525 201.616 17.734 202.308 18.2886C203.468 19.222 204.016 19.0842 204.418 17.7473C204.549 17.3113 204.737 17.1487 205.176 17.1506C205.771 17.1544 206.366 17.1544 206.959 17.1296C208.036 17.0875 208.956 17.0799 208.415 18.5832C208.171 19.264 208.674 19.5892 209.46 19.7919C211.382 20.2853 213.222 19.4553 215.172 19.7326C218.343 20.1821 221.241 21.1747 223.974 22.6551C225.801 23.6439 227.647 24.5332 229.595 25.3154C231.659 26.1455 233.849 26.5969 235.844 27.4958C236.757 27.907 237.744 28.519 238.341 29.4332C238.393 29.3625 238.448 29.2917 238.5 29.221C238.45 29.2936 238.401 29.3663 238.351 29.439H238.357Z" fill="#891F1B"/>
<path d="M102.645 18C102.95 16.8642 103.225 15.7187 103.57 14.5945C104.132 12.7578 103.763 10.9949 103.207 9.23784C103.054 8.7544 102.639 8.50393 102.248 8.22823C99.7659 6.47696 96.9968 5.45766 93.9445 5.2305C91.9229 5.07906 89.8953 4.92762 87.8678 5.18584C87.6564 5.21302 87.4252 5.2635 87.2318 5.20914C83.4677 4.14324 79.4744 3.55301 76.6773 0.454322C76.6155 0.386368 76.6055 0.275698 76.4999 0C77.9612 0.170855 79.3827 -0.0388311 80.6267 0.809621C81.1052 1.1358 81.3824 1.11057 81.9745 0.766915C83.382 -0.0465886 84.9789 0.30871 86.4044 0.879522C87.1819 1.19211 87.9216 1.45809 88.7051 1.24064C92.1701 0.283464 95.4756 1.18433 98.7831 2.00366C101.074 2.57059 103.195 3.49671 105.051 4.97811C105.821 5.59357 106.644 5.90033 107.591 4.99169C108.566 4.05781 109.9 4.64222 110.741 5.09459C111.889 5.712 113.022 5.77414 114.096 5.56445C116.297 5.13732 118.351 5.679 120.377 6.22457C123.088 6.95459 125.847 7.68461 128.046 9.56208C128.836 10.2377 129.715 10.6086 130.764 10.7503C131.878 10.9017 132.897 11.4065 133.9 11.8958C134.183 12.0336 134.595 12.2064 134.569 12.5132C134.44 14.0548 135.6 13.6801 136.452 13.7636C137.454 13.8626 138.483 13.814 139.5 14.2761C138.256 15.2818 136.918 15.6371 135.353 15.4488C133.23 15.1925 131.168 14.5188 129.091 14.2703C125.335 13.8199 122.105 12.3132 118.829 10.6882C116.447 9.50577 113.805 9.35433 111.154 9.58344C110.671 9.62615 110.069 9.61061 109.868 10.0727C109.033 11.9968 106.981 12.4724 105.45 13.4937C104.521 14.113 103.965 14.6994 103.682 15.676C103.448 16.4837 103.369 17.3515 102.643 17.9981L102.645 18Z" fill="#891F1B"/>
<path d="M168 53.5491C165.462 54.0958 163.129 54.2255 160.792 53.4864C159.138 52.9635 157.483 52.447 155.733 52.4319C154.768 52.4233 154.03 51.7966 153.241 51.291C149.752 49.0631 146.085 47.6499 141.9 47.9567C139.863 48.1058 138.426 49.0263 137.294 50.6816C136.59 51.7102 135.85 52.6955 134.959 53.6031C134.875 53.6226 134.863 53.5556 134.863 53.3913C134.836 47.2501 133.465 46.5824 128.937 45.0611C125.868 44.0282 122.731 44.5014 119.66 45.2253C118.189 45.5711 116.806 45.6467 115.392 45.0157C114.332 44.5446 113.173 44.5749 112.049 44.4518C109.983 44.227 108.234 43.1941 106.5 41.9213C109.529 42.7554 112.385 41.0764 115.347 41.4762C115.979 41.5605 116.653 41.4157 117.192 41.9408C117.493 42.2347 117.757 42.0445 118.061 41.876C121.234 40.1148 124.418 40.2747 127.892 41.0786C130.337 41.6447 132.33 43.0645 134.627 43.8035C135.243 44.0023 135.625 44.1298 136.156 43.4966C137.027 42.4594 139.539 43.2373 139.848 44.5619C139.957 45.0287 140.249 45.0611 140.575 45.0309C141.379 44.9574 142.19 44.8969 142.984 44.7564C147.723 43.9266 152.109 44.549 155.759 48.2657C156.142 48.6547 156.648 48.646 157.101 48.8124C159.543 49.707 162.008 50.5173 164.243 51.9738C165.341 52.689 166.769 52.5529 168 53.5491Z" fill="#891F1B"/>
<path d="M56.9999 67.5321C58.2604 67.749 59.5109 67.5414 60.7674 67.5062C62.5877 67.458 64.4241 67.7008 66.2444 67.8899C67.6882 68.04 69.0695 68.1735 70.5475 67.8102C72.5088 67.3283 74.5184 67.7064 76.4313 68.2773C76.9025 68.4181 77.3374 68.5386 77.8267 68.5275C79.2805 68.496 80.5773 68.9297 81.7855 69.6452C82.7379 70.2105 83.7347 70.6924 84.816 71.0353C85.6315 71.293 86.3121 71.3208 87.0652 70.7684C87.9633 70.1104 89.0224 70.6035 90.0111 70.7276C90.0957 70.7388 90.2246 70.85 90.2326 70.9241C90.3796 72.4273 91.6502 72.1994 92.6571 72.1697C95.8829 72.0752 98.9395 72.9148 102.051 73.4709C103.086 73.6563 103.887 74.0455 103.961 75.317C105.29 74.2864 106.368 74.8147 107.425 75.4783C110.258 77.2632 113.496 78.2308 116.665 79.3299C117.382 79.5783 118.075 79.8211 118.5 80.468C115.552 80.8906 112.715 80.3735 109.978 79.2614C109.181 78.937 108.369 78.7183 107.503 78.6089C106.269 78.4513 105.144 78.0121 104 77.5376C100.067 75.912 95.905 75.1502 91.5938 75.0872C91.1609 75.0816 90.6656 75.0668 90.4139 75.4394C89.8521 76.2679 88.9701 76.7591 88.1848 77.3559C87.5304 77.8527 87.184 78.5088 87.0954 79.2855C87.035 79.8193 86.9585 80.3531 86.876 81C86.7572 80.7998 86.6625 80.7164 86.6746 80.6497C86.9746 78.9741 86.4732 77.5227 85.263 76.2549C84.9368 75.9139 84.7254 75.4764 84.7173 75.0334C84.6992 73.9509 83.9421 73.4931 83.0038 73.1132C79.2927 71.6081 75.362 71.0446 71.361 70.824C70.0058 70.7499 68.6748 70.6405 67.3902 70.2235C66.2505 69.8528 65.0564 69.8361 63.8744 69.7916C61.3271 69.6952 59.0195 69.0298 57.0462 67.5043L56.9999 67.5321Z" fill="#891F1B"/>
</svg>
