<svg width="178" height="145" viewBox="0 0 178 145" fill="none" xmlns="http://www.w3.org/2000/svg">
<path d="M25.3013 143.901C18.2695 143.878 12.3006 141.397 7.3946 136.459C2.48861 131.52 0.0472218 125.535 0.0704369 118.503L0.209727 76.3126L118.555 76.7033C119.273 71.924 121.186 67.7464 124.292 64.1704C127.398 60.5944 131.203 58.0403 135.709 56.5082L166.723 46.2278C171.165 44.7557 175.956 47.1781 177.403 51.6276C178.839 56.0421 176.44 60.7875 172.033 62.2481L140.93 72.558C139.24 73.115 137.865 74.1301 136.806 75.6033C135.746 77.0765 135.213 78.7272 135.207 80.5554L135.081 118.949C135.057 125.981 132.576 131.95 127.638 136.856C122.699 141.762 116.714 144.203 109.683 144.18L25.3013 143.901ZM31.2853 59.5387C26.2057 59.5219 22.9721 54.2355 22.4174 49.1862C22.2968 48.0886 22.065 47.0286 21.7218 46.006C20.3987 42.0638 18.1264 38.1184 14.9048 34.17C10.2824 28.5292 7.2411 23.2101 5.78091 18.2127C4.82248 14.9325 4.39556 11.2451 4.50014 7.15052C4.59971 3.252 7.9981 0.39427 11.8979 0.407145C16.8753 0.423578 20.3485 5.04636 20.5478 10.0198C20.5985 11.2834 20.7443 12.4489 20.9852 13.5164C21.7476 16.8942 23.7396 20.5573 26.9612 24.5058C32.284 30.9927 35.6755 36.7348 37.1356 41.7323C38.1666 45.2608 38.4774 49.2602 38.068 53.7305C37.755 57.1481 34.7172 59.55 31.2853 59.5387ZM65.0378 59.6501C59.9582 59.6334 56.7201 54.3577 56.2282 49.3019C56.1213 48.2029 55.9051 47.1416 55.5798 46.1178C54.3271 42.1758 52.0899 38.2306 48.8683 34.2821C44.2459 28.6413 41.1694 23.3221 39.6389 18.3245C38.6344 15.0444 38.1765 11.3571 38.2651 7.26278C38.3495 3.3639 41.7506 0.505702 45.6504 0.518577C50.6278 0.53501 54.101 5.15779 54.3004 10.1313C54.351 11.3948 54.4968 12.5603 54.7377 13.6278C55.5001 17.0056 57.4921 20.6688 60.7137 24.6172C66.0365 31.1041 69.428 36.8463 70.8882 41.8437C71.9192 45.3722 72.23 49.3716 71.8205 53.8419C71.5075 57.2595 68.4698 59.6615 65.0378 59.6501ZM98.7904 59.7616C93.7107 59.7448 90.4726 54.4691 89.9807 49.4133C89.8738 48.3144 89.6577 47.253 89.3323 46.2292C88.0796 42.2872 85.8424 38.342 82.6208 34.3935C77.9984 28.7528 74.9219 23.4336 73.3914 18.4359C72.3869 15.1558 71.929 11.4686 72.0176 7.37422C72.102 3.47534 75.5032 0.617134 79.4029 0.630009C84.3804 0.646442 87.8535 5.26922 88.0529 10.2427C88.1035 11.5062 88.2493 12.6717 88.4903 13.7393C89.2526 17.1171 91.2446 20.7802 94.4662 24.7287C99.789 31.2156 103.181 36.9577 104.641 41.9551C105.672 45.4837 105.982 49.4831 105.573 53.9533C105.26 57.371 102.222 59.7729 98.7904 59.7616Z" fill="#EF5423"/>
</svg>
