<svg width="440" height="388" viewBox="0 0 440 388" fill="none" xmlns="http://www.w3.org/2000/svg">
<path fill-rule="evenodd" clip-rule="evenodd" d="M65.8667 352.691C50.1037 337.934 34.9424 290.327 47.7643 243.244C56.962 209.469 34.7539 191.067 10.9687 171.358C-6.69256 156.723 -25.2234 141.368 -32.4119 118.463C-45.9077 75.4631 -43.6283 -6.17633 -40.8016 -41.621L178.624 -53.1206C189.901 -35.8329 212.214 14.3847 201.578 47.6619C188.244 89.3776 220.913 99.3052 232.327 52.7018C243.742 6.09829 245.873 -27.2704 229.054 -9.76045C218.596 1.12725 213.576 -18.9738 209.415 -35.6381C207.076 -45.0024 205.009 -53.2814 202.4 -54.3666L404.853 -64.9768C418.966 -67.4061 446.405 -57.2413 443.259 2.85253C441.171 42.724 421.538 68.1225 403.11 91.963C386.819 113.038 371.469 132.895 370.012 160.457C368.519 188.702 377.67 206.752 385.833 222.856C394.648 240.244 402.312 255.363 394.191 278.597C381.678 314.399 365.054 344.709 358.306 355.389C340.455 368.716 296.64 383.966 246.395 386.6C169.597 390.624 122.54 382.952 91.6211 372.181C78.895 367.748 66.2788 360.555 65.8667 352.691ZM202.4 -54.3666C202.185 -54.4561 201.966 -54.4967 201.743 -54.485L178.527 -53.2683C178.559 -53.2193 178.592 -53.1701 178.624 -53.1206L202.4 -54.3666ZM383.591 -1.23088C384.693 16.2636 381.437 57.0815 359.601 80.3972C332.305 109.542 311.124 117.857 327.601 72.6514C332.238 59.9269 336.551 46.0336 340.65 32.8325C351.111 -0.865584 360.172 -30.0538 369.661 -23.7806C380.226 -16.7961 383.35 -5.83723 383.591 -1.23088Z" fill="url(#paint0_linear_1_3030)"/>
<defs>
<linearGradient id="paint0_linear_1_3030" x1="197.037" y1="-47.5873" x2="219.256" y2="376.382" gradientUnits="userSpaceOnUse">
<stop stop-color="#FADB00" stop-opacity="0.27"/>
<stop offset="1" stop-color="white" stop-opacity="0.1"/>
</linearGradient>
</defs>
</svg>
