<svg width="348" height="343" viewBox="0 0 348 343" fill="none" xmlns="http://www.w3.org/2000/svg">
<path d="M113.219 279.05C111.823 312.313 98.249 332.161 91.6366 337.927L81.2478 342.957C69.2547 285.279 33.555 310.136 7.07893 275.642C-15.4924 246.236 20.1625 193.663 96.3184 191.915C172.474 190.166 202.212 105.033 143.81 71.1301C102.177 46.9617 48.9131 57.602 27.3811 21.1674C10.1555 -7.98037 16.4738 -22.9254 24.2459 -38.657C129.977 -46.6276 286.068 -57.8729 273.164 -38.8075C257.033 -14.9757 285.98 23.8735 332.635 90.3876C379.29 156.902 307.537 210.559 235.029 217.723C162.521 224.887 114.965 237.471 113.219 279.05Z" fill="url(#paint0_linear_1_3262)" fill-opacity="0.3"/>
<defs>
<linearGradient id="paint0_linear_1_3262" x1="149.489" y1="-22.2345" x2="168.389" y2="338.39" gradientUnits="userSpaceOnUse">
<stop stop-color="#FADB00"/>
<stop offset="1" stop-color="white" stop-opacity="0.2"/>
</linearGradient>
</defs>
</svg>
