<svg width="504" height="901" viewBox="0 0 504 901" fill="none" xmlns="http://www.w3.org/2000/svg">
<path d="M310.594 124.681C315.136 126.945 319.886 128.503 324.712 129.312C322.169 126.321 319.628 123.329 317.085 120.338C321.746 122.892 326.759 124.37 331.812 124.684L324.918 117.416C328.597 119.355 332.494 120.601 336.448 121.094L332.285 115.301C335.52 115.886 338.754 116.468 341.989 117.053C340.421 115.162 338.849 113.27 337.281 111.38C341.502 112.738 345.863 113.363 350.204 113.232L346.264 108.744C349.262 108.924 352.262 109.102 355.262 109.283C354.365 107.697 353.468 106.111 352.571 104.525C355.297 106.07 360.134 105.498 359.275 101.848C361.635 102.022 363.999 102.194 366.36 102.368C364.652 99.083 362.286 96.3581 359.555 94.5271L364.445 91.6507C325.927 91.5807 287.809 111.313 260.47 145.413C262.001 123.45 259.365 100.947 252.846 80.377C250.726 73.6877 248.111 67.0417 243.969 62.1275C239.826 57.2132 233.879 54.296 228.484 56.1913C230.205 55.8786 230.328 60.6471 228.895 59.3578C230.398 60.9553 231.897 62.5545 233.4 64.152C231.912 62.6478 229.966 66.0911 230.96 68.1604C231.954 70.2297 234.103 70.6723 235.982 70.908L231.901 71.748L237.157 77.9262C235.625 77.3914 233.972 77.4577 232.479 78.1143C234.667 80.1266 236.852 82.1405 239.041 84.1527C237.364 83.6063 235.522 83.9958 234.088 85.2029L239.994 89.5017L234.565 90.0944C237.32 92.3584 240.074 94.6248 242.826 96.888L236.171 97.0271L244.73 103.93L236.395 103.593C238.856 106.02 241.578 108.005 244.459 109.475C241.774 108.797 238.977 108.896 236.338 109.762L245.763 115.933C242.932 115.113 239.97 115.075 237.142 115.826L246.395 122.285C243.859 121.33 241.149 121.178 238.571 121.842L245.284 127.392C243.672 126.833 241.906 127.091 240.449 128.103L246.433 132.382L242.231 133.334C243.824 135.871 245.989 137.814 248.391 138.855L242.86 139.958C224.714 101.163 191.312 74.6278 156.292 71.187L162.358 75.023C159.459 75.931 156.774 77.8901 154.699 80.6206C157.186 81.3104 159.672 81.9995 162.159 82.6893C160.392 82.2828 161.501 86.563 163.29 86.5718C165.08 86.5806 167.257 85.3752 168.419 87.1441C167.147 85.9467 165.868 89.329 167.069 90.6426C168.271 91.9562 170.071 91.4006 171.547 90.7545C173.024 90.1083 174.799 89.4914 176.045 90.7298L172.482 94.5826C176.514 95.3591 180.63 95.37 184.652 94.62C182.199 96.6511 179.744 98.6846 177.293 100.717L189.747 99.9448C186.984 101.905 184.223 103.862 181.463 105.822C185.934 106.677 190.506 106.598 194.94 105.591C192.186 107.804 189.432 110.018 186.679 112.229C191.465 112.851 196.317 112.505 201 111.209C197.36 113.924 193.721 116.638 190.082 119.353C194.729 119.201 199.375 119.048 204.022 118.896C195.616 124.866 185.21 120.511 175.688 118.287C158.815 114.346 141.033 117.853 126.039 128.071C129.659 127.461 133.28 126.85 136.9 126.239C134.975 128.026 133.483 130.562 132.671 133.433C135.575 132.803 138.483 132.171 141.388 131.541C139.908 131.452 140.006 134.854 141.405 135.495C142.804 136.135 144.268 135.015 145.49 133.966C146.712 132.918 148.216 131.851 149.59 132.587C148.568 134.337 147.545 136.087 146.523 137.837C150.242 137.34 153.897 136.138 157.331 134.284L155.013 139.722L166.721 134.797C165.028 137.729 163.334 140.661 161.641 143.593C165.608 141.666 169.575 139.738 173.543 137.808C171.283 141.021 169.024 144.231 166.768 147.442C172.072 144.682 177.379 141.923 182.689 139.162C179.478 142.724 176.682 146.892 174.422 151.496C179.42 148.687 184.421 145.88 189.422 143.07C185.741 147.431 182.455 152.337 179.647 157.66C184.333 154.917 189.019 152.174 193.706 149.429C192.333 155.162 187.774 158.802 183.16 159.862C178.545 160.922 173.799 159.906 169.131 159.151C133.592 153.409 96.8593 163.454 66.6896 187.13C70.396 185.7 74.1033 184.267 77.8106 182.834C75.1938 187.901 73.3229 193.607 72.3236 199.575C75.3887 197.784 78.2681 195.487 80.8712 192.755C80.2026 195.483 79.5324 198.207 78.8646 200.933C82.4099 198.354 85.6604 195.115 88.48 191.346C87.8518 194.53 87.2203 197.715 86.593 200.896C91.0515 196.981 95.0712 192.25 98.49 186.882L96.5924 197.542C99.8172 194.703 102.763 191.348 105.339 187.574C104.648 191.155 103.956 194.736 103.268 198.315C107.136 194.336 110.584 189.688 113.491 184.531C112.397 189.023 111.305 193.513 110.213 198.001C114.868 193.368 119.064 187.986 122.677 182.012C121.14 186.93 119.989 192.048 119.248 197.273C123.131 191.903 127.015 186.529 130.902 181.155C129.328 186.752 128.108 192.516 127.26 198.374C130.9 192.851 134.543 187.324 138.189 181.795L134.498 199.334C138.571 194.657 142.215 189.364 145.334 183.597C144.137 188.997 142.944 194.395 141.749 199.791C145.943 194.852 149.716 189.328 152.988 183.344C151.504 188.31 150.531 193.534 150.105 198.837C153.253 194.479 156.401 190.121 159.55 185.76L156.939 198.143C160.994 193.669 164.539 188.436 167.429 182.655C166.135 187.222 165.318 192.014 165.006 196.869C168.031 193.93 170.772 190.514 173.15 186.722C172.324 190.143 171.962 193.752 172.079 197.346C174.49 195.549 176.673 193.255 178.524 190.585L178.123 196.512L184.495 192.418L181.262 199.98C184.963 197.866 188.451 195.151 191.613 191.921L188.033 201.39C191.338 198.67 194.644 195.947 197.952 193.225L194.931 202.334C198.475 200.687 201.763 198.159 204.556 194.933C203.883 197.714 203.213 200.494 202.54 203.273L212.497 196.001C210.929 198.872 209.84 202.169 209.318 205.618C212.873 203.829 216.2 201.323 219.142 198.217C221.281 200.215 223.419 202.213 225.557 204.21C224.547 201.266 223.922 197.159 220.971 196.676C201.083 193.421 183.132 198.447 164.956 208.101C148.598 216.792 133.491 228.98 121.884 246.049C119.061 250.2 116.203 254.367 114.575 259.73C116.772 257.064 118.968 254.4 121.692 251.097C121.334 256.609 119.646 261.113 120.572 266.27C123.477 263.596 124.966 259.809 127.215 256.499C127.852 259.23 126.729 261.814 127.895 264.222C130.679 260.843 132.292 256.648 134.48 252.855C134.588 255.174 134.465 257.41 134.34 259.646C134.301 260.313 133.99 261.201 134.547 261.558C135.29 262.033 135.604 261.111 135.972 260.449C138.637 255.656 140.922 250.568 143.082 244.895C143.763 246.856 143.191 248.464 143.379 249.997C143.587 251.716 142.39 254.148 143.935 254.932C144.706 255.324 145.424 252.525 146.215 251.224C147.782 248.648 148.34 245.228 150.468 242.405C150.008 246.447 149.642 249.81 150.396 253.986C153.671 248.406 155.125 242.436 157.295 236.577C157.404 241.806 156.059 246.545 156.814 252.267C160.671 245.327 162.865 238.276 165.626 231.516C164.965 236.682 165.27 241.826 165.331 247.05C169.082 241.314 170.779 234.193 173.532 226.773C173.349 233.758 172.587 239.789 173.289 245.906C176.726 239.32 178.574 231.9 180.854 224.523C181.306 225.754 181.118 226.764 180.964 227.74C180.156 232.863 179.854 238.061 180.063 243.273C180.139 245.145 179.712 246.238 178.673 247.364C169.36 257.472 161.362 269.063 154.27 281.76C142.409 302.995 134.446 326.48 129.303 351.611C128.705 354.532 127.571 357.479 128.045 361.713C130.543 354.408 132.212 347.622 135.059 341.057C136.569 347.066 137.637 352.681 139.815 357.796C140.122 358.515 140.357 359.485 141.069 359.418C141.856 359.343 141.814 358.258 141.91 357.503C142.441 353.339 143.142 349.205 143.259 344.867C144.188 346.845 144.879 348.919 145.722 350.892C146.028 351.608 146.052 352.968 147.032 352.798C147.98 352.633 147.771 351.402 147.89 350.558C148.61 345.472 148.472 340.312 148.275 334.429C150.282 338.632 150.709 343.073 153.101 346.676C154.403 338.184 153.997 330.172 153.756 321.351C155.258 325.142 156.423 328.115 157.613 331.074C157.908 331.806 157.806 333.219 158.89 332.814C159.808 332.471 159.466 331.257 159.45 330.413C159.365 325.727 159.222 321.039 159.075 315.474C161.668 319.213 162.156 323.606 164.866 326.599C165.633 318.951 164.338 311.775 163.946 304.541C165.119 307.222 166.071 309.93 166.992 312.655C167.865 315.237 168.521 317.981 170.61 320.612C170.5 310.254 170.483 300.819 169.4 291.383C171.069 297.011 173.129 302.363 175.162 307.731C175.455 308.506 175.753 309.357 176.481 309.111C177.115 308.895 176.87 307.949 176.859 307.308C176.744 300.838 176.62 294.367 175.856 287.933C175.685 286.489 175.157 285.045 175.794 283.257C178.075 290.16 180.182 296.903 183.71 302.776C184.105 294.038 182.54 285.55 182.096 276.957C184.616 283.335 186.677 289.908 190.199 296.698C190.784 286.975 189.033 278.532 188.257 269.195C190.696 276.149 192.697 282.466 195.95 288.068C195.798 279.532 195.686 271.076 194.284 262.661C196.623 268.56 198.569 274.584 202.143 280.452C202.338 272.632 201.802 265.82 201.178 258.982C203.386 263.051 204.352 267.949 207.536 272.219C207.342 263.911 206.463 256.588 205.883 249.219C207.695 253.31 209.266 257.473 211.311 261.311C211.677 261.998 211.884 262.958 212.62 262.778C213.512 262.558 213.113 261.459 213.106 260.742C213.056 255.009 213.02 249.272 212.111 242.774C214.31 246.376 215.247 250.12 217.694 252.649C217.865 252.055 217.99 251.748 218.04 251.423C218.8 246.462 218.64 241.504 217.704 236.583C217.358 234.761 217.889 233.461 219.103 233.033C220.31 232.605 220.284 234.315 220.695 235.26C222.148 238.606 223.483 242.066 225.206 245.174C226.235 247.032 226.174 248.286 225.373 250.085C218.692 265.057 213.152 280.767 207.869 296.548C200.943 317.236 194.614 338.221 189.042 359.576C184.577 376.677 180.299 393.822 176.446 411.122C172.99 426.646 169.785 442.262 166.804 457.926C162.853 478.693 159.279 499.552 156.144 520.525C153.635 537.324 151.078 554.092 148.848 570.927C146.513 588.558 144.501 606.244 142.715 623.961C142.275 628.336 141.721 632.712 141.358 637.298C139.542 636.104 140.092 634.058 139.689 632.566C137.337 623.852 135.217 615.043 132.916 606.302C129.73 594.194 126.633 582.034 123.16 570.036C119.504 557.407 115.622 544.87 111.554 532.411C106.72 517.612 101.764 502.873 96.236 488.449C89.6825 471.345 82.7122 454.489 74.9844 438.131C73.1152 434.174 73.6159 430.579 76.3158 426.766C77.324 429.938 76.1861 433.693 78.326 436.687C78.8925 435.333 79.3562 434.228 80.0721 432.523C80.362 435.357 80.5733 437.489 80.8029 439.616C80.8754 440.273 80.8615 441.115 81.6062 441.122C82.1202 441.127 82.231 440.442 82.4627 439.966C83.0757 438.716 82.6677 436.69 84.3145 436.046C84.3533 439.127 84.0737 442.172 84.8907 445.148C86.5025 444.406 85.9101 442.172 87.0311 440.492C87.5457 443.799 87.3408 446.669 88.5364 450C89.3929 447.073 90.0488 444.834 90.7047 442.595C91.2299 445.586 91.2896 448.504 91.4104 451.42C91.4342 452.019 91.198 452.985 91.9287 453.12C92.7063 453.263 92.863 452.399 93.0561 451.589C93.5484 449.511 94.1335 447.469 94.6791 445.413C94.8184 449.411 94.5804 453.345 95.9143 457.938C96.823 454.662 97.508 452.196 98.339 449.199C99.2341 453.047 98.3422 456.696 99.6494 460.261C101.517 457.837 100.911 454.379 102.825 451.479C102.93 455.284 103.009 458.424 103.113 461.563C103.13 462.11 103.117 462.798 103.68 462.957C104.401 463.161 104.531 462.453 104.697 461.774C105.14 459.983 105.619 458.207 106.086 456.424C106.882 460.452 106.646 464.509 107.727 468.583C109.366 466.683 109.19 464.211 109.907 461.867C110.764 465.039 109.801 468.423 111.627 471.479C112.249 469.72 112.727 468.366 113.458 466.302C113.631 469.709 113.979 472.315 115.078 475.207C115.67 473.369 116.104 472.024 116.592 470.505C118.161 474.026 117.184 478.157 119.178 481.674C119.482 480.808 119.609 480.521 119.685 480.214C119.912 479.313 119.411 477.683 120.463 477.656C121.659 477.627 120.949 479.259 121.209 480.106C121.639 481.496 121.113 483.408 122.614 484.194C123.485 483.718 122.939 481.741 124.397 481.869C124.778 483.822 124.748 486.044 126.213 487.733C127.793 484.739 127.803 481.438 128.014 477.925C130.255 480.007 130.62 483.42 132.655 485.517C132.881 483.198 131.744 481.818 131.184 480.198C125.167 462.748 116.44 447.894 104.537 436.137C100.754 432.401 96.1986 429.432 96.602 421.972C96.6139 421.747 96.6273 421.525 96.6489 421.122C98.3196 423.688 99.1138 426.913 101.249 429.356C101.945 426.422 100.538 424.177 100.413 421.391C102.708 423.495 103.028 427.337 105.703 429.101C105.412 426.627 105.168 424.548 104.912 422.357C106.959 424.753 107.617 428.392 110.017 430.287C110.681 428.821 109.767 427.37 110.454 426.124C111.918 427.576 112.16 430.27 113.953 431.088C114.754 430.108 113.675 428.68 114.6 427.85C115.766 429.036 116.259 431.759 117.715 431.616C119.1 431.479 117.171 429.19 118.116 427.937C119.372 429.902 120.536 431.793 121.774 433.605C122.033 433.984 122.62 434.343 122.946 434.23C123.448 434.056 123.2 433.3 123.203 432.752C123.206 432.149 122.501 431.598 123.077 430.954C124.684 431.807 125.017 434.786 126.958 435.057C127.56 433.84 126.189 433 127.017 431.844C128.42 432.88 129.135 435.253 131.033 435.622C131.22 433.21 130.034 431.272 129.805 428.724C131.074 429.658 132.045 430.373 133.123 431.167C133.158 429.645 132.364 429.121 131.798 428.447C123.123 418.083 113.229 410.734 101.604 407.214C91.7306 404.224 81.9812 404.134 72.2598 407.068C70.3064 407.658 72.0982 410.099 72.1516 407.816C72.2141 405.198 73.6713 403.963 75.5251 405.145C77.1058 406.151 78.4978 407.948 80.4314 407.168C80.8127 405.728 79.1755 405.48 79.4886 404.165C82.4625 405.284 83.8959 404.899 83.7889 403.009C85.24 402.992 86.2019 405.447 88.0374 404.537C87.4968 403.298 87.0396 402.248 86.4029 400.786C88.3007 401.412 89.4458 403.451 91.4222 403.064C90.8893 401.938 90.4799 401.076 90.004 400.072C91.9202 400.279 93.0414 402.45 94.7145 402.27C95.1413 400.755 93.2603 400.565 93.9197 399.166C94.8321 399.398 96.1679 400.879 96.3138 400.348C97.3817 396.462 98.8349 401.005 99.8644 400.176C100.588 398.64 99.1763 397.369 99.5587 395.91C101.09 396.582 101.681 398.964 103.378 398.847C103.88 397.132 102.577 395.827 102.882 393.988C104.57 395.71 105.586 398.08 107.593 398.639C108.204 396.854 106.253 396.049 106.906 394.223C107.974 395.452 106.745 393.448 107.779 394.527C108.093 394.854 110.897 398.373 111.169 398.203C111.748 397.836 111.538 396.982 111.328 396.379C110.866 395.063 110.317 393.794 109.631 392.069C112.233 393.921 113.384 397.319 116.189 398.42C116.019 395.804 114.28 394.262 114.276 391.803C116.232 393.801 117.596 396.45 119.926 397.855C119.957 394.986 118.419 393.095 117.685 390.451C120.138 392.218 121.228 395.695 124.272 396.528C123.291 393.898 122.495 391.759 121.698 389.621C123.885 391.511 125.721 393.793 128.334 395.79C127.693 393.498 127.202 391.736 126.583 389.529C129.082 391.53 130.659 394.271 133.236 395.759C133.335 393.41 131.617 392.154 131.793 390.14C133.647 391.297 134.577 394.178 136.86 394.592C136.952 392.856 135.567 391.928 135.809 390.136C136.487 390.763 136.964 391.329 137.52 391.69C138.419 392.276 139.121 394.384 140.176 393.283C141.068 392.351 139.473 391.204 139.412 389.997C139.406 389.87 139.605 389.733 139.79 389.496C141.686 391.595 143.698 393.529 145.868 395.085C146.708 393.644 144.685 392.751 145.801 391.409C147.261 392.018 148.273 394.011 150 394.089C150.393 392.885 149.035 392.118 149.515 390.952C151.038 391.037 151.923 393.394 153.717 393.018C153.303 389.716 151.676 385.473 156.174 392.939C157.487 392.603 157.915 390.393 157.152 388.144C156.626 386.599 155.588 385.413 154.362 384.781C149.024 382.023 143.532 380.138 137.9 378.688C122.514 374.723 107.438 375.202 92.6706 381.637C91.7801 382.025 90.8335 382.544 89.9131 381.375C88.8759 380.057 87.7382 378.87 86.0787 376.987C88.7825 378.11 90.7684 378.935 93.0781 379.891C92.295 376.905 89.9737 376.347 88.9578 373.92C91.3044 373.904 92.9982 376.277 95.1124 375.612C95.09 373.715 93.2894 373.619 93.0914 371.998C94.9466 370.697 96.7381 373.884 98.7498 372.26C97.9008 371.171 97.1784 370.241 96.4617 369.319C98.249 368.897 99.75 371.142 101.795 370.216C100.984 369.011 100.308 368.009 99.4461 366.728C101.548 367.242 101.083 364.474 102.782 364.887C103.151 363.65 104.113 366.502 104.326 365.644C105.948 364.538 108.481 369.354 109.394 364.286C111.623 365.584 113.215 362.73 115.288 362.947C115.782 363 116.467 363.252 116.71 362.489C116.948 361.739 116.501 361.17 115.955 360.908C115.335 360.613 115.112 360.119 115.241 359.311C115.852 358.828 116.462 359.352 117.074 359.377C117.783 359.405 118.513 359.647 119.194 359.114C118.839 358.114 118.132 357.94 117.419 357.753C106.152 354.807 92.9623 352.076 82.5555 358.422C80.6659 359.576 81.4526 362.608 79.7087 361.078C81.3517 360.269 83.2295 361.699 84.6039 359.98C83.5833 358.321 81.8093 358.729 80.6811 357.054C82.4285 356.461 84.3542 357.618 85.8937 355.606C84.6178 354.865 83.5832 354.263 82.551 353.662C84.1934 353.164 85.7217 353.162 87.2436 353.084C87.7176 353.061 88.4426 353.324 88.4759 352.314C88.4968 351.698 88.0267 351.408 87.5984 351.133C87.2216 350.891 86.5226 351.388 86.4282 350.238C87.7239 349.993 88.9908 349.751 90.18 349.527C90.1328 347.836 88.8139 348.156 88.5122 346.992C89.8863 346.536 92.4543 345.883 92.429 345.662C92.0496 342.418 94.2698 343.473 95.2159 342.996C97.4014 341.895 94.8388 341.524 95.1431 340.648C98.2353 341.225 99.0261 336.898 101.477 335.627C100.253 335.081 99.0278 334.534 97.8718 334.02C97.9505 332.8 99.2842 333.208 99.1097 331.749C97.9429 332.028 96.7732 332.14 95.6932 332.59C78.8521 339.582 66.2845 352.803 58.9906 373.574C58.3575 375.374 57.6905 375.81 56.3326 374.963C56.8529 374.076 57.8819 373.813 58 372.607C57.563 371.649 56.6461 372.766 56.1022 371.655C58.9238 371.01 57.5629 367.194 59.2332 365.79C58.6742 364.907 57.8126 365.681 57.3554 364.496C58.2183 364.139 59.1723 363.75 59.2135 362.17C58.5674 362.053 57.9361 361.941 57.1371 361.796C57.9504 360.741 59.0033 360.408 59.2537 358.901C58.5247 358.761 57.9428 358.65 57.1382 358.497C57.9077 357.512 58.9601 357.157 59.1988 355.596L56.6878 355.648C56.6871 353.998 58.1948 354.263 58.4007 353.217C58.8863 350.754 56.7794 353.208 56.6009 351.737C57.2123 351.08 57.7976 350.395 58.4297 349.789C58.7966 349.44 59.3364 348.893 58.7289 348.594C56.3445 347.416 58.7775 347.151 58.8996 346.482C58.9516 346.205 59.0948 345.959 59.2462 345.579C58.6138 345.423 58.1038 345.295 57.0976 345.048C59.9613 343.94 58.4525 340.74 59.5115 338.882L60.1846 332.575C60.3524 331.742 61.1486 330.989 60.5596 330.065C59.8809 329.001 58.9589 329.211 58.0682 329.608C55.0798 330.94 52.8595 333.436 51.3703 336.946C47.2886 346.559 47.1428 357.066 47.7767 367.678C48.0138 371.634 48.3717 375.606 49.5192 379.958C48.7292 379.422 48.401 379.247 48.1158 378.996C31.8808 364.664 14.184 357.315 -5.45142 359.226C-7.30077 359.406 -7.26616 359.338 -7.24643 361.64C-7.24301 362.091 -7.65575 362.613 -7.97075 362.964C-8.54816 363.61 -9.43019 363.911 -9.36129 365.381C-8.11533 366.081 -6.53089 364.956 -5.32165 366.811C-4.81081 367.595 -2.49363 365.392 -2.6949 368.76C-2.25587 368.703 -1.80121 368.712 -1.38008 368.571C-0.687603 368.34 -0.0178283 368.015 0.624869 367.744C0.961218 368.976 -0.474353 369.401 0.130241 370.265C0.666012 371.033 1.45362 370.377 2.12082 370.06C3.1121 369.587 4.12884 369.184 5.14147 368.785C5.24327 368.746 5.40081 368.928 5.5014 368.988C5.66611 369.911 4.42847 370.323 4.89269 371.146C6.25971 372.181 7.14494 370.242 8.40274 370.853C8.27305 371.735 7.09171 372.318 7.74093 373.172C8.31551 373.932 9.04299 373.012 9.70541 372.748C10.4515 372.45 10.9839 371.313 11.8882 371.599C11.9781 373.302 10.0119 373.334 10.6347 375.512C12.5464 374.501 14.444 373.499 16.534 372.396C15.9839 374.274 14.4513 374.947 14.4542 377.219C16.3488 376.185 18.0635 375.25 20.1822 374.096C17.0284 379.613 17.0272 379.64 12.4847 379.611C4.62979 379.56 -3.01354 381.155 -10.5742 383.52C-12.4551 384.109 -14.4324 384.244 -12.6283 388.857C-13.5977 387.583 -13.8916 387.301 -14.0805 386.932C-15.1821 384.768 -16.6924 385.305 -17.83 386.342C-19.1701 387.565 -17.4625 388.572 -17.2024 389.705C-17.0501 390.37 -16.1987 390.809 -16.7862 391.794C-17.9803 390.969 -18.366 389.268 -19.3078 388.224C-19.8952 387.573 -20.5493 387.106 -21.218 387.872C-21.8265 388.569 -21.3762 389.321 -21.0887 390.041C-20.5424 391.415 -19.3487 392.345 -19.3664 394.151C-20.4901 392.829 -21.3928 391.299 -22.3883 389.869C-23.3189 388.53 -24.397 388.896 -25.2455 389.878C-26.3148 391.115 -24.9614 391.53 -24.5542 392.231C-23.7073 393.684 -22.4048 394.801 -22.0707 397.786C-23.3207 395.962 -24.1207 394.914 -24.8032 393.759C-25.3607 392.815 -25.7768 392.099 -26.9185 392.084C-30.2686 392.035 -32.8831 394.237 -35.6305 396.058C-37.1126 397.039 -38.6811 397.942 -37.5341 400.89C-37.2923 401.512 -37.4835 402.372 -36.7183 402.646C-35.862 402.952 -35.1107 402.829 -34.6014 401.831C-34.2256 401.098 -34.6183 399.957 -33.8711 399.37C-33.2702 399.807 -33.1316 401.37 -32.3433 400.99C-30.4279 400.071 -28.8843 400.693 -26.9807 401.58C-25.9839 402.044 -25.9326 402.024 -26.0197 403.053C-26.0746 403.688 -26.6285 404.235 -26.0243 405.258C-23.8572 403.726 -22.6378 400.762 -20.4469 398.709C-20.482 399.541 -20.5114 399.975 -20.5144 400.412C-20.5212 401.155 -21.236 402.046 -20.536 402.595C-19.632 403.303 -19.4635 401.825 -18.9188 401.424C-17.9801 400.738 -17.7934 398.921 -16.5358 398.698C-16.0029 400.086 -17.2369 401.385 -16.218 402.977C-14.9654 401.117 -13.8253 399.421 -12.6013 397.603C-11.9447 399.509 -13.759 400.97 -12.5375 402.765C-10.2271 400.709 -9.04742 397.367 -6.83151 394.828C-6.75369 397.622 -8.3465 399.55 -7.90915 402.253C-5.36847 400.161 -4.40394 396.502 -1.95719 393.886C-2.22818 397.034 -3.7682 399.412 -3.18893 402.493C-1.14711 400.83 -0.681057 397.827 1.21467 396.45C1.89375 398.6 0.590652 400.352 1.05215 402.708C3.27324 400.742 3.9867 397.393 6.13923 395.18C6.01194 397.905 4.63313 399.78 5.07493 402.653C7.26806 400.554 8.21342 397.569 10.0046 395.062C10.5116 397.47 8.80146 399.426 9.86979 401.678C11.7165 400.394 12.2681 397.47 13.978 396C14.7712 397.854 12.6851 399.303 14.0131 401.014C15.7855 399.547 16.3285 396.72 18.2989 394.77C18.129 396.236 18.0026 397.116 17.9313 398.005C17.8738 398.71 17.2601 399.628 18.1386 400.06C18.8641 400.417 19.0956 399.306 19.5707 398.93C20.541 398.16 20.5865 396.044 22.0782 395.941C22.3304 397.51 21.0325 399.239 22.0512 399.998C23.3907 400.993 23.6732 398.44 24.6405 397.837C24.8556 397.702 25.0762 397.583 25.2903 397.459C25.7105 398.25 24.7075 399.193 25.4067 399.681C26.6603 400.558 26.9363 398.19 27.9781 398.16C28.5236 399.464 26.7514 400.328 27.869 401.803C29.2777 400.493 30.704 399.165 32.0511 397.914C32.7107 399.516 30.6715 400.18 31.6885 401.865C33.3684 401.141 34.419 399.29 35.9263 397.943C36.1346 399.726 34.7774 400.926 35.3124 402.547C36.9378 402.154 37.8891 400.534 39.2877 399.714C39.357 401.982 40.8951 401.963 43.9021 399.656C43.7315 401.561 41.8464 405.441 45.7877 402.89C46.1573 402.651 46.6535 403.16 46.7258 403.833C46.8203 404.705 46.692 405.543 45.8788 405.606C44.8109 405.687 43.7289 405.643 42.6556 405.565C22.3387 404.134 4.47961 411.691 -10.9919 427.915C-15.8174 432.974 -20.1366 438.664 -23.8893 445.033C-24.3936 445.889 -25.0464 447.826 -24.9074 447.838C-22.3966 448.064 -24.1311 450.32 -23.756 451.479C-23.3729 452.663 -24.0084 454.2 -23.1072 455.258C-21.4227 454.298 -21.4874 451.577 -20.0393 450.353C-19.2655 451.38 -20.2408 452.942 -19.1396 453.758C-17.8335 452.49 -17.9432 449.939 -16.5619 448.716C-15.8769 449.674 -16.832 451.464 -15.5472 451.695C-14.4186 451.899 -14.6744 450.229 -14.3463 449.427C-13.4878 447.32 -12.8041 445.096 -11.9647 442.679C-11.3915 444.403 -11.9922 445.982 -11.2086 447.49C-9.39416 446.219 -9.76733 443.061 -8.23734 441.545C-7.63122 442.945 -8.21373 444.654 -6.99825 445.815C-6.27482 443.446 -5.6098 441.268 -4.88968 438.9C-4.00115 440.511 -4.72033 442.344 -3.7147 443.879C-1.6835 441.158 -1.86176 437.24 -0.279546 434.255C0.364965 436.402 -0.499827 438.615 0.779631 440.521C2.77317 438.043 2.33097 434.281 4.11353 431.021C4.19443 433.703 4.23687 435.638 4.32138 437.571C4.34882 438.207 4.25785 439.088 5.01936 439.135C5.71667 439.176 5.77035 438.378 5.89254 437.7C6.3859 434.953 7.5805 432.457 7.85797 429.45C8.09029 432.077 8.32263 434.704 8.63347 438.232C10.8601 435.036 10.4396 431.386 12.0139 428.043C12.0749 430.075 12.0185 431.421 12.1883 432.727C12.2993 433.599 11.733 435.071 12.8926 435.234C13.789 435.36 13.7199 434.042 13.9152 433.186C14.4284 430.953 15.0098 428.746 15.6126 426.335C16.4518 428.532 15.6162 431.106 17.1006 433.089C18.7807 431.038 18.0965 427.719 19.7127 425.772C20.3048 427.299 19.5516 429.024 20.5339 430.579C22.3322 428.759 21.7314 425.557 23.0082 423.269C23.6908 425.012 23.084 427.078 24.5144 428.184C25.6314 426.555 25.876 424.461 26.637 422.705C27.6957 423.691 26.7026 426.281 28.1468 426.347C29.5062 426.411 29.2371 423.898 30.0643 422.778C31.9516 427.516 32.1327 421.681 33.2987 422.127C33.8487 422.941 32.8613 424.221 34.1083 425.037C35.1043 423.273 36.1138 421.477 37.2892 419.394C37.6257 421.34 36.1206 422.776 37.4503 424.355C38.479 422.472 39.4505 420.69 40.4868 418.793C41.1351 420.31 40.2071 421.783 41.0753 423.039C42.7198 422.25 42.7209 419.602 44.1426 418.636C44.9787 419.238 43.6574 420.931 44.9358 421.149C45.873 421.309 46.1732 420.039 46.6575 419.327C47.3365 418.333 47.5811 416.889 48.6902 416.022C48.6564 417.605 48.6862 421.006 48.6512 422.743C49.5527 422.203 49.9354 418.496 50.6078 418.092C49.4357 420.3 48.3213 419.817 47.0616 420.673C40.6466 425.037 34.6129 430.128 28.9281 435.852C17.4307 447.427 7.20354 460.404 1.00012 477.716C-1.29224 484.112 -2.86082 490.807 -3.16358 497.93C-3.20898 498.99 -2.9297 501.092 -2.79048 500.961C-0.68319 499.006 -1.34522 502.128 -0.888444 502.758C-0.383968 503.458 -0.279263 504.633 0.807623 505.013C1.12866 503.326 1.44695 501.663 1.79876 499.823C2.55334 500.485 2.36277 502.083 3.35014 501.725C4.29033 501.384 3.85764 500.215 3.89781 499.377C3.95179 498.292 3.94244 497.199 3.96325 496.067C4.96514 496.192 4.85921 498.331 5.88398 497.62C6.52727 497.172 6.32069 495.972 6.30478 495.073C6.26843 493.113 6.19417 491.15 6.10982 488.351C7.08468 489.975 7.23506 491.321 8.52013 491.464C8.5495 489.585 8.57735 487.757 8.60463 486.042C9.90429 486.008 9.71414 487.834 10.6846 488.232C11.6124 486.06 10.2968 483.686 11.0455 481.466C11.8384 482.486 11.8921 483.983 13.2723 484.432L13.0105 475.679C14.6907 476.375 14.3222 479.216 16.0651 479.517C16.8575 476.242 15.1067 473.168 15.5414 469.708C16.8371 471.956 17.277 474.526 19.1304 476.057C19.9655 472.802 18.1723 469.945 18.611 466.569C19.4905 468.499 20.2236 470.026 20.8819 471.6C21.1131 472.15 21.3327 472.7 21.8344 472.574C22.5774 472.388 22.395 471.563 22.2918 470.923C21.9182 468.584 21.5117 466.252 21.0668 463.626C22.8878 464.719 22.4918 467.781 24.625 468.293C24.7649 465.483 23.626 462.887 23.9179 460.108C25.5575 460.818 25.3463 463.531 27.0977 464.467C27.362 461.72 26.9454 459.203 26.3846 456.029C27.4866 457.827 28.2561 459.081 29.1134 460.48C30.1975 457.468 28.2959 454.987 28.5766 452.249C30.0937 452.938 30.0577 455.282 31.5556 455.995C32.2078 454.117 31.1997 451.993 31.9345 450.09C32.2753 450.443 32.5086 450.629 32.6868 450.879C33.154 451.526 33.4133 452.725 34.2862 452.427C35.2692 452.09 34.5709 450.884 34.7585 450.114C35.1416 448.533 36.9422 448.439 37.0588 446.562C37.2768 446.657 37.6283 446.677 37.6944 446.86C38.6307 449.452 38.8356 447.631 39.0425 446.511C39.2732 445.259 39.3834 443.965 39.5871 442.369C40.293 443.433 40.0911 444.944 41.2034 445.275C42.0982 443.428 41.2616 441.16 42.1781 439.354C42.8991 440.272 42.5963 442.208 43.8004 441.972C44.7502 441.786 44.1752 440.21 44.4966 439.348C44.7728 438.608 44.5378 437.505 45.3793 437.155C46.8182 439.809 45.3065 441.574 44.4381 443.614C39.1415 456.091 35.202 469.201 33.4222 483.342C32.82 488.135 32.3534 493.085 32.4385 497.787C32.5219 502.368 35.5725 506.194 38.4466 509.774C39.4501 507.011 38.008 504.676 38.1287 502.08C38.6077 502.575 38.8944 502.845 39.1616 503.148C39.6613 503.71 39.9169 505.071 40.7954 504.454C41.561 503.917 41.0081 502.81 40.9479 501.958C40.8376 500.441 39.9639 499.026 40.4293 497.066C41.3449 497.964 41.5256 499.842 42.9495 499.489C42.8572 495.752 42.147 492.269 40.8612 488.833C42.6611 488.597 42.5633 492.055 44.4961 491.333C44.1498 489.058 43.8103 486.827 43.4113 484.22C44.0457 484.879 44.3735 485.277 44.7478 485.589C45.2394 485.999 45.4209 487.295 46.1556 486.847C47.0415 486.305 46.4715 485.246 46.2443 484.447C45.7249 482.631 45.0517 480.869 44.919 478.71C46.4321 479.848 46.8593 482.048 48.5193 482.906C48.9414 480.658 48.0543 478.932 47.6417 477.142C47.201 475.234 46.5939 473.385 46.0564 471.51L46.3875 471.255C47.7207 473.015 49.0539 474.774 50.7631 477.031C50.4682 472.098 48.5947 468.496 47.67 464.313C49.9454 466.496 51.0601 469.837 53.6291 471.532C53.3133 467.422 51.4269 464.309 50.6003 460.455C52.8648 462.058 53.6617 465.394 56.5771 466.663C55.2708 462.626 54.1715 459.231 52.9826 455.555C55.0668 457.217 55.8917 460.218 58.2114 461.495C57.9477 457.362 55.9707 454.184 55.1244 450.061C56.542 451.927 57.6645 453.404 58.7863 454.875C59.1462 455.347 59.4532 456.155 60.0859 455.698C60.7609 455.216 60.2549 454.505 60.0926 453.916C59.4931 451.727 58.8646 449.55 58.1704 447.094C59.8511 447.884 60.1695 450.549 62.2006 450.33C61.554 447.228 60.1012 444.694 59.8188 441.464C61.3255 442.652 62.0304 444.585 63.5459 445.208C64.2822 443.127 62.7186 441.412 63.1883 438.979C66.8451 448.136 70.5745 456.758 73.7912 465.665C81.2813 486.393 88.0394 507.482 94.0965 528.891C99.304 547.298 103.928 565.908 108.237 584.633C113.069 605.638 117.597 626.709 121.364 647.995C123.799 661.76 126.162 675.533 128.453 689.313C129.491 695.553 129.38 695.578 125.166 698.661C124.711 698.994 124.285 699.395 123.844 699.761C113.277 708.459 101.621 714.043 89.4925 718.247C88.9414 718.436 88.1509 718.997 87.7961 718.121C87.5611 717.543 87.775 716.585 87.9504 715.866C88.3891 714.062 89.4024 712.422 88.8423 709.985C87.5799 711.254 86.5302 712.308 85.4964 713.347C83.5719 710.519 84.8012 706.51 82.5084 703.741C82.1412 707.666 80.9953 711.007 80.9405 714.651C80.929 715.376 80.6464 716.031 80.0682 716.147C79.481 716.266 79.4915 715.426 79.2926 714.99C78.1841 712.527 77.1163 710.035 76.0252 707.562C74.2997 703.653 72.5699 699.747 70.8033 695.757C70.1374 696.5 70.2262 697.038 70.3726 697.586C72.2444 704.68 74.1204 711.77 75.9873 718.863C76.3789 720.348 77.1061 721.883 75.0519 722.431C68.9315 724.063 63.4811 727.713 58.0579 731.364C57.0002 732.076 55.5195 732.227 54.818 734.422C63.9565 733.953 72.8631 735.613 81.7128 735.571C126.343 735.358 171.038 734.585 215.818 734.004C220.299 733.946 224.783 733.883 229.266 733.804C229.772 733.795 230.434 734.08 230.707 733.333C231.08 732.315 230.321 732.013 229.829 731.555C227.724 729.605 225.694 727.51 223.516 725.705C216.341 719.757 209.072 714.045 200.151 713.794C198.556 713.749 199.086 712.509 199.306 711.429C200.402 706.113 201.53 700.808 202.562 695.467C202.937 693.528 203.568 691.592 203.201 688.408C200.215 696.216 197.571 703.125 194.931 710.029L194.309 709.946C193.408 705.884 192.505 701.821 191.537 697.468C189.445 700.439 191.016 704.626 189.121 707.231C187.663 706.468 187.073 704.324 185.396 704.007C185.215 706.046 186.002 707.511 186.526 709.053C187.639 712.32 187.601 712.533 184.759 712.004C180.142 711.143 176.209 708.164 172.293 705.069C170.811 703.898 170.454 702.67 170.538 700.642C170.859 692.742 171.005 684.823 171.297 676.913C171.732 665.16 172.033 653.38 172.752 641.645C173.919 622.573 175.256 603.503 176.749 584.437C178.092 567.273 179.597 550.111 181.301 532.973C182.971 516.161 184.918 499.386 187.216 482.671C188.817 471.022 190.236 459.31 192.121 447.724C193.81 437.356 195.455 426.963 197.254 416.611C200.449 398.227 203.909 379.921 207.882 361.766C210.819 348.335 214.315 335.118 217.586 321.798C222.769 300.692 229.516 280.382 236.228 260.017C237.472 256.244 238.694 252.279 240.809 248.967C241.849 250.301 240.621 252.512 241.879 252.875C243.09 253.223 243.547 251.065 244.463 250.205C245.519 249.214 245.83 247.038 247.721 246.795C246.953 252.89 245.149 258.476 245.748 265.002C249.146 261.014 251.336 256.285 253.981 251.964C252.53 259.273 250.439 266.36 250.19 274.861C253.137 270.858 254.863 266.914 257.183 263.487C256.234 270.168 254.411 276.548 254.323 284.322C258.221 278.853 260.809 273.345 263.83 268.201C262.041 276.364 259.995 284.338 259.633 292.902C263.241 288.212 265.723 282.508 268.796 277.343C267.079 285.418 265.001 293.287 264.346 302.646C268.384 297.069 270.894 291.236 274.086 285.974C272.672 294.041 270.783 301.866 270.158 310.107C274.41 304.667 277.241 297.992 280.563 291.741C278.844 300.339 276.823 308.788 276.78 317.794C280.168 313.538 282.287 308.26 285.059 303.509C283.867 312.138 281.668 320.481 282.012 329.387C285.092 325.604 286.831 320.715 289.405 316.566C288.226 323.409 286.592 330.029 286.537 337.695C289.25 334.606 290.611 330.811 293.037 328.075C291.892 333.651 291.556 339.272 291.581 345.667C294.367 342.375 295.601 338.337 297.859 335.369C296.783 342.256 296.087 349.083 295.916 355.992C295.891 356.993 295.19 358.615 296.417 358.988C297.44 359.299 297.626 357.571 298.084 356.698C299.27 354.433 300.337 352.065 301.452 349.737C301.777 350.89 301.763 351.809 301.61 352.689C300.993 356.188 300.771 359.752 300.705 363.324C300.68 364.739 300.108 367.037 301.113 367.424C302.48 367.951 302.72 365.416 303.503 364.29C304.357 363.061 304.958 361.551 306.087 359.355C305.996 364.455 305.343 368.567 305.915 372.686C306.036 373.561 305.928 374.768 306.843 374.945C307.523 375.076 307.813 374.059 308.156 373.434C311.002 368.256 313.17 362.606 314.77 356.64C315.539 353.775 316.284 350.644 314.021 347.932C313.567 347.389 313.47 346.246 313.378 345.353C311.886 330.801 308.123 317.067 303.388 303.74C296.771 285.119 288.36 267.839 278.197 251.933C276.32 248.994 276.259 243.188 278.135 239.533C280.616 243.975 278.958 250.028 282.068 254.469C283.515 249.864 283.49 245.188 284.41 240.782C284.566 247.164 285.778 253.163 288.151 258.878C288.551 255.773 288.953 252.668 289.49 248.493C290.87 254.007 291.192 258.864 293.023 263.643C294.464 261.02 294.011 258.209 295.177 255.629C295.736 258.292 296.209 260.512 296.661 262.738C296.801 263.429 296.894 264.137 297.626 264.135C298.237 264.132 298.233 263.474 298.409 262.959C298.928 261.442 299.492 259.952 300.038 258.451C300.655 261.581 300.686 264.59 300.818 267.594C300.854 268.426 300.664 269.697 301.582 269.906C302.441 270.099 302.72 268.858 303.062 268.135C304.087 265.961 304.988 263.692 305.939 261.46L306.497 261.64L306.828 276.16C309.977 272.26 310.523 267.313 312.875 262.714C312.827 264.185 312.873 264.656 312.788 265.084C311.776 270.206 312.088 275.449 312.026 280.655C312.016 281.446 311.869 282.473 312.713 282.648C313.712 282.851 313.363 281.547 313.65 280.943C315.052 277.998 315.83 274.693 317.08 271.532C316.711 276.827 316.626 282.106 316.9 287.385C316.942 288.171 316.424 289.47 317.539 289.628C318.251 289.729 318.408 288.722 318.67 287.952C320.003 284.048 321.411 280.183 323.076 275.514C323.275 279.906 323.049 283.329 322.799 286.773C322.555 290.167 322.461 293.616 323.002 297.79C325.747 292.68 326.669 287.355 328.73 282.644C328.466 289.568 328.028 296.451 329.029 303.348C331.416 298.011 333.193 292.434 334.755 286.695C335.078 294.151 333.674 301.515 334.95 308.976C337.812 303.44 339.117 297.068 341.289 291.162C340.642 299.087 340.416 306.942 341.418 315.5C343.891 310.759 344.622 305.826 346.425 301.555C346.781 308.162 346.901 314.64 347.091 321.114C347.114 321.889 346.703 323.222 347.777 323.347C348.493 323.43 348.618 322.378 348.844 321.599C349.883 318.036 350.984 314.507 352.063 310.961C352.365 312.324 352.346 313.578 352.253 314.823C351.956 318.872 352.116 322.922 352.278 326.973C352.308 327.676 352.322 328.461 352.982 328.663C353.78 328.907 353.73 327.971 353.943 327.388C354.804 325.044 355.685 322.713 356.844 319.612C357.204 325.097 356.837 329.88 358.229 334.877C360.52 331.702 360.465 327.824 362.315 324.761C362.567 332.184 362.419 339.178 364.465 346.78C365.611 342.915 366.513 339.871 367.56 336.348C367.698 337.348 367.842 337.878 367.829 338.4C367.726 342.262 368.815 345.934 369.002 349.748C369.04 350.542 369.125 351.482 369.99 351.515C370.76 351.545 370.627 350.594 370.828 350.015C371.396 348.381 371.962 346.748 372.601 344.909C373.804 347.995 373.591 351.231 374.31 354.187C374.555 355.196 374.408 356.883 375.579 356.909C376.682 356.934 376.761 355.27 377.023 354.277C377.862 351.106 378.817 347.972 379.08 344.538C380.987 345.536 379.885 348.067 381.112 349.624C381.935 347.761 381.701 346.036 381.292 344.657C380.009 340.331 379.948 335.724 378.622 331.314C374.286 316.872 368.083 303.921 360.422 292.009C344.958 267.958 325.488 250.213 304.564 234.843C293.454 226.685 284.511 213.905 272.594 207.98C269.805 206.593 267.986 205.889 268.349 202.493C268.432 201.721 266.491 205.66 266.999 205.039C268.533 206.143 268.918 220.52 271.1 221.002C271.057 217.163 271.414 211.742 271.044 207.685C273.99 211.949 274.663 218.34 278.562 221.123C278.534 217.637 277.761 214.836 277.199 211.888C280.171 215.472 282.245 220.181 286.115 223.075C286.301 218.783 284.349 215.383 284.339 210.692C286.891 216.249 290.069 219.94 293.265 223.783C292.137 220.368 291.233 216.937 290.887 213.048C294.556 216.11 296.003 221.647 299.902 224.396C300.097 221.148 298.538 218.72 298.299 215.542C300.711 218.087 301.927 221.692 304.679 223.384C305.402 220.038 302.809 217.204 304.356 213.614C305.876 217.314 307.245 220.67 308.636 224.011C308.977 224.833 309.397 226.005 310.137 225.82C311.166 225.565 311.041 224.01 310.847 223.187C310.116 220.097 311.001 217.342 311.419 214.303C312.618 215.156 312.757 216.525 312.984 217.683C313.613 220.908 314.967 223.64 316.32 226.405C316.629 227.04 316.838 227.711 317.484 227.549C318.212 227.366 318.07 226.494 318.06 225.851C317.984 221.899 317.889 217.946 317.773 213.991C317.735 212.64 316.384 211.431 317.572 209.584C319.262 217.581 321.608 224.898 325.198 232.034C326.242 227.436 324.882 223.094 325.589 218.373C327.396 223.691 328.883 228.433 331.043 232.775C331.45 233.595 331.37 235.255 332.449 234.913C333.456 234.592 332.908 233.127 332.899 232.186C332.843 227.303 332.838 222.416 332.234 217.524C334.766 224.591 336.81 231.834 340.451 238.265C340.557 232.025 340.693 225.827 339.543 219.64C342.455 226.789 344.247 234.567 348.361 242.01C348.789 234.748 347.363 228.578 347.677 221.335C350.358 229.276 352.123 236.606 355.895 242.683C356.213 236.247 355.801 229.969 355.293 223.646C358.117 230.643 360.275 237.977 364.377 244.98C364.639 238.441 364.027 232.952 363.584 227.446C366.684 234.704 369.014 242.322 373.302 249.469C373.925 243.657 372.442 238.841 372.699 233.852C374.827 239.739 376.813 245.67 379.997 251.368C380.813 247.224 379.902 243.533 380.366 239.518C382.763 244.284 384.24 249.346 387.663 253.616C387.646 248.97 387.537 245.147 386.952 240.436C387.857 242.35 388.43 243.407 388.877 244.542C390.805 249.435 392.983 254.122 395.697 258.394C396.029 258.915 396.135 259.799 396.85 259.537C397.785 259.194 397.293 258.245 397.278 257.5C397.229 254.926 396.519 252.379 396.86 249.302C399.17 254.052 401.021 258.61 404.508 262.56L404.321 253.347C406.353 256.612 408.129 259.533 409.974 262.377C410.407 263.043 410.912 264.099 411.722 263.737C412.665 263.314 412.202 262.1 412.101 261.295C411.533 256.686 410.877 252.094 410.238 247.384C411.974 248.268 412.89 250.435 414.737 250.803C411.264 245.817 407.854 240.843 403.845 236.48C394.516 226.331 384.644 217.182 373.827 209.864C363.503 202.882 352.542 197.504 341.256 193.77C328.699 189.615 315.564 187.465 302.768 185.252C296.031 184.085 289.296 182.92 282.563 181.757C279.197 181.176 275.831 180.593 272.465 180.011C270.795 179.721 264.755 179.925 263.631 178.484C267.385 183.261 272.287 186.546 277.48 187.767C276.004 184.592 274.525 181.416 273.049 178.242C276.657 180.43 280.266 182.618 283.876 184.806C283.633 181.527 282.475 178.358 280.657 176.003C284.228 179.394 288.291 181.931 292.568 183.44C290.787 179.89 289.003 176.338 287.222 172.787C290.912 176.242 294.959 179.07 299.22 181.173L294.194 171.522C298.068 174.16 301.941 176.799 305.815 179.438L302.201 171.102C304.296 173.194 306.834 174.55 309.461 174.979L308.016 168.817C310.273 171.689 312.943 174.028 315.852 175.681L313.788 164.82C316.457 168.459 319.579 171.556 322.997 173.957C322.17 168.944 320.892 164.048 319.199 159.394C322.725 165.084 326.909 170.107 331.577 174.241C330.442 170.495 329.305 166.751 328.17 163.005C331.837 167.042 335.503 171.08 339.17 175.117C337.546 169.518 335.921 163.919 334.294 158.32C338.105 164.151 342.442 169.425 347.188 174C346.118 168.662 344.534 163.489 342.488 158.627C346.55 163.113 350.611 167.596 354.673 172.082C353.081 166.558 351.487 161.031 349.895 155.504C354.229 160.923 358.561 166.339 362.893 171.758C361.263 164.913 359.143 158.254 356.573 151.886C360.98 158.277 365.83 164.171 371.047 169.469C369.7 163.009 367.542 156.817 364.686 151.199C369.229 158.456 374.702 164.765 380.818 169.793C379.281 165.18 377.745 160.566 376.209 155.953C379.745 160.962 383.733 165.456 388.066 169.311L385.296 158.181C388.356 162.225 391.92 165.653 395.809 168.289L392.14 157.213C396.499 162.296 401.278 166.792 406.372 170.593L403.403 160.585C406.535 164.208 410.101 167.225 413.934 169.494L411.804 161.113C414.582 164.017 417.764 166.289 421.155 167.783C420.396 165.133 419.637 162.481 418.881 159.829C421.826 162.976 425.184 165.494 428.773 167.239C428.089 162.869 426.587 158.706 424.426 155.191C425.93 155.181 427.437 155.169 428.941 155.159C397.79 136.341 362.445 129.206 328.462 134.865C320.496 136.191 311.1 137.599 305.594 130.043C310.174 131.785 314.755 133.53 319.334 135.272C319.331 135.265 319.327 135.261 319.324 135.254C316.809 131.252 313.867 127.691 310.607 124.699L310.594 124.681ZM199.928 153.198C197.509 156.614 195.323 160.385 192.587 163.317C190.805 165.228 188.549 163.203 186.077 162.111C191.139 159.101 195.663 156.459 199.928 153.198ZM181.436 243.648C183.357 237.854 185.626 232.357 187.388 226.521C187.948 233.572 188.172 240.505 181.436 243.648Z" fill="#DF3926"/>
<path d="M323.582 169.031C329.047 171.755 334.763 173.63 340.571 174.604C337.51 171.005 334.453 167.404 331.392 163.805C337.001 166.878 343.033 168.657 349.114 169.035L340.819 160.289C345.245 162.623 349.934 164.121 354.692 164.714L349.683 157.743C353.576 158.448 357.467 159.148 361.361 159.852C359.473 157.577 357.582 155.3 355.694 153.025C360.774 154.659 366.021 155.412 371.246 155.254L366.504 149.853C370.112 150.07 373.721 150.284 377.332 150.502C376.253 148.594 375.173 146.685 374.094 144.777C377.374 146.636 383.194 145.948 382.16 141.556C385.001 141.765 387.845 141.972 390.686 142.182C388.631 138.228 385.784 134.95 382.498 132.746L388.381 129.285C342.032 129.201 296.164 152.946 263.267 193.978C265.109 167.549 261.937 140.472 254.093 115.719C251.542 107.67 248.395 99.6725 243.41 93.7591C238.426 87.8457 231.269 84.3354 224.777 86.6159C226.849 86.2397 226.997 91.9777 225.272 90.4263C227.08 92.3486 228.884 94.2729 230.692 96.1953C228.902 94.3852 226.561 98.5286 227.757 101.019C228.953 103.509 231.539 104.041 233.799 104.325L228.889 105.336L235.214 112.77C233.37 112.126 231.382 112.206 229.584 112.996C232.218 115.418 234.847 117.841 237.481 120.263C235.462 119.605 233.246 120.074 231.521 121.526L238.627 126.699L232.095 127.412C235.41 130.136 238.723 132.864 242.035 135.587L234.027 135.754L244.326 144.061L234.296 143.656C237.258 146.576 240.533 148.965 244 150.733C240.77 149.917 237.404 150.036 234.228 151.078L245.569 158.505C242.163 157.518 238.598 157.472 235.195 158.375L246.33 166.148C243.278 164.999 240.017 164.816 236.916 165.615L244.993 172.293C243.053 171.62 240.928 171.931 239.175 173.148L246.376 178.297L241.319 179.443C243.236 182.496 245.842 184.834 248.732 186.087L242.076 187.414C220.241 140.731 180.047 108.801 137.907 104.661L145.207 109.276C141.718 110.369 138.488 112.727 135.99 116.012C138.983 116.842 141.974 117.671 144.967 118.502C142.841 118.012 144.175 123.163 146.328 123.173C148.482 123.184 151.102 121.734 152.5 123.862C150.97 122.421 149.43 126.491 150.876 128.072C152.321 129.653 154.488 128.984 156.264 128.206C158.041 127.429 160.177 126.687 161.677 128.177L157.389 132.813C162.241 133.747 167.194 133.76 172.033 132.858C169.081 135.302 166.128 137.749 163.178 140.194L178.164 139.265C174.84 141.624 171.517 143.979 168.196 146.338C173.576 147.366 179.078 147.271 184.413 146.059C181.099 148.723 177.785 151.387 174.472 154.047C180.231 154.795 186.07 154.379 191.705 152.82C187.325 156.087 182.946 159.353 178.567 162.62C184.159 162.436 189.75 162.253 195.342 162.07C185.226 169.254 172.704 164.013 161.247 161.337C140.943 156.595 119.546 160.815 101.503 173.111C105.86 172.376 110.216 171.641 114.572 170.906C112.256 173.056 110.46 176.108 109.483 179.563C112.978 178.804 116.478 178.044 119.973 177.286C118.192 177.178 118.31 181.273 119.993 182.043C121.677 182.814 123.439 181.467 124.909 180.204C126.379 178.942 128.189 177.658 129.842 178.544C128.613 180.65 127.381 182.756 126.152 184.862C130.627 184.264 135.025 182.817 139.157 180.587L136.368 187.13L150.457 181.203C148.419 184.732 146.381 188.26 144.343 191.788C149.117 189.469 153.891 187.149 158.666 184.827C155.947 188.693 153.228 192.556 150.513 196.42C156.896 193.099 163.281 189.779 169.671 186.456C165.807 190.742 162.443 195.758 159.723 201.297C165.738 197.918 171.755 194.54 177.774 191.159C173.344 196.406 169.389 202.31 166.011 208.715C171.65 205.415 177.288 202.114 182.928 198.811C181.276 205.71 175.79 210.089 170.238 211.365C164.685 212.64 158.974 211.418 153.356 210.51C110.591 203.6 66.3907 215.688 30.0869 244.177C34.5469 242.456 39.0079 240.732 43.469 239.007C40.3202 245.104 38.0689 251.971 36.8665 259.152C40.5547 256.997 44.0195 254.233 47.1519 250.945C46.3474 254.228 45.5409 257.507 44.7373 260.786C49.0035 257.683 52.9148 253.786 56.3077 249.251C55.5518 253.081 54.792 256.914 54.0371 260.742C59.402 256.031 64.239 250.338 68.353 243.879L66.0695 256.706C69.95 253.29 73.4953 249.253 76.5948 244.712C75.7625 249.021 74.9302 253.329 74.1019 257.636C78.757 252.849 82.9057 247.255 86.4038 241.05C85.0879 246.455 83.7729 251.858 82.459 257.258C88.0608 251.684 93.1099 245.207 97.4571 238.019C95.6082 243.937 94.2234 250.095 93.3316 256.382C98.0037 249.92 102.678 243.453 107.355 236.987C105.461 243.723 103.992 250.658 102.972 257.707C107.353 251.062 111.736 244.41 116.123 237.757L111.683 258.862C116.583 253.234 120.968 246.865 124.721 239.926C123.281 246.424 121.845 252.92 120.408 259.412C125.454 253.469 129.995 246.822 133.932 239.621C132.146 245.597 130.975 251.883 130.462 258.265C134.25 253.02 138.039 247.776 141.828 242.529L138.686 257.429C143.565 252.045 147.831 245.748 151.308 238.792C149.752 244.287 148.769 250.054 148.393 255.896C152.033 252.359 155.331 248.249 158.193 243.686C157.199 247.802 156.763 252.146 156.904 256.47C159.805 254.307 162.432 251.548 164.659 248.334L164.177 255.467L171.844 250.54L167.954 259.64C172.408 257.096 176.605 253.829 180.41 249.942L176.102 261.336C180.079 258.063 184.057 254.787 188.038 251.511L184.402 262.472C188.667 260.49 192.623 257.448 195.985 253.566C195.174 256.913 194.368 260.259 193.559 263.603L205.539 254.852C203.653 258.307 202.342 262.273 201.714 266.424C205.992 264.271 209.995 261.256 213.536 257.519C216.109 259.923 218.682 262.326 221.256 264.73C220.04 261.188 219.287 256.246 215.736 255.664C191.805 251.747 170.204 257.795 148.332 269.412C128.648 279.87 110.47 294.536 96.5033 315.075C93.1066 320.071 89.6671 325.084 87.7084 331.538C90.352 328.33 92.9946 325.124 96.2724 321.15C95.8412 327.782 93.8103 333.202 94.9241 339.408C98.4204 336.19 100.212 331.633 102.918 327.65C103.685 330.937 102.334 334.046 103.737 336.943C107.086 332.878 109.028 327.829 111.661 323.266C111.79 326.056 111.643 328.747 111.492 331.436C111.445 332.24 111.071 333.309 111.742 333.737C112.635 334.31 113.013 333.2 113.456 332.404C116.663 326.635 119.412 320.513 122.011 313.687C122.831 316.046 122.143 317.982 122.368 319.826C122.619 321.895 121.178 324.821 123.037 325.765C123.965 326.236 124.829 322.868 125.781 321.303C127.667 318.203 128.339 314.088 130.899 310.691C130.345 315.554 129.906 319.601 130.812 324.626C134.753 317.911 136.504 310.728 139.114 303.677C139.245 309.97 137.627 315.673 138.535 322.557C143.176 314.206 145.817 305.722 149.139 297.587C148.344 303.804 148.711 309.993 148.784 316.28C153.298 309.378 155.34 300.809 158.652 291.88C158.432 300.286 157.515 307.543 158.361 314.904C162.496 306.978 164.72 298.05 167.463 289.173C168.008 290.654 167.781 291.87 167.596 293.043C166.623 299.209 166.26 305.463 166.512 311.735C166.603 313.987 166.089 315.303 164.839 316.658C153.632 328.821 144.008 342.768 135.475 358.047C121.201 383.599 111.619 411.859 105.43 442.1C104.711 445.615 103.347 449.161 103.918 454.256C106.923 445.466 108.932 437.3 112.358 429.401C114.174 436.631 115.459 443.387 118.08 449.543C118.45 450.408 118.732 451.575 119.589 451.494C120.536 451.404 120.485 450.099 120.602 449.19C121.239 444.179 122.084 439.204 122.224 433.985C123.342 436.365 124.174 438.861 125.188 441.235C125.556 442.096 125.585 443.733 126.765 443.528C127.905 443.33 127.653 441.848 127.797 440.833C128.664 434.713 128.497 428.504 128.26 421.424C130.675 426.482 131.189 431.826 134.067 436.161C135.634 425.943 135.145 416.302 134.855 405.688C136.663 410.249 138.065 413.827 139.497 417.388C139.852 418.268 139.729 419.968 141.033 419.482C142.139 419.069 141.727 417.608 141.708 416.592C141.605 410.953 141.433 405.313 141.256 398.615C144.376 403.115 144.963 408.401 148.225 412.003C149.148 402.799 147.589 394.165 147.118 385.46C148.529 388.685 149.674 391.944 150.782 395.224C151.834 398.331 152.622 401.632 155.136 404.799C155.004 392.334 154.984 380.981 153.68 369.626C155.689 376.399 158.168 382.839 160.614 389.299C160.967 390.231 161.325 391.255 162.201 390.959C162.964 390.699 162.669 389.561 162.655 388.789C162.518 381.004 162.368 373.217 161.449 365.475C161.243 363.737 160.608 362 161.375 359.849C164.119 368.155 166.654 376.268 170.9 383.336C171.375 372.822 169.492 362.608 168.958 352.267C171.99 359.943 174.471 367.851 178.708 376.022C179.412 364.322 177.305 354.163 176.371 342.927C179.306 351.295 181.714 358.897 185.629 365.637C185.445 355.366 185.311 345.191 183.624 335.064C186.439 342.163 188.779 349.412 193.081 356.473C193.315 347.063 192.67 338.866 191.92 330.638C194.577 335.534 195.739 341.428 199.57 346.566C199.337 336.569 198.279 327.757 197.581 318.89C199.761 323.813 201.652 328.822 204.113 333.441C204.553 334.267 204.802 335.423 205.687 335.205C206.761 334.941 206.281 333.619 206.272 332.756C206.212 325.857 206.17 318.954 205.075 311.135C207.721 315.469 208.848 319.974 211.793 323.018C211.999 322.302 212.15 321.933 212.209 321.542C213.124 315.572 212.932 309.607 211.806 303.685C211.389 301.492 212.028 299.928 213.488 299.413C214.941 298.898 214.91 300.955 215.405 302.093C217.153 306.119 218.76 310.282 220.833 314.023C222.071 316.258 221.998 317.767 221.034 319.932C212.994 337.948 206.328 356.853 199.971 375.842C191.636 400.737 184.021 425.988 177.316 451.684C171.943 472.263 166.795 492.893 162.159 513.711C158 532.391 154.143 551.182 150.556 570.03C145.802 595.02 141.501 620.12 137.729 645.358C134.71 665.572 131.633 685.75 128.95 706.007C126.14 727.223 123.719 748.505 121.57 769.824C121.04 775.088 120.373 780.354 119.937 785.872C117.751 784.436 118.414 781.974 117.929 780.179C115.099 769.692 112.547 759.093 109.778 748.575C105.944 734.005 102.218 719.373 98.0386 704.935C93.6392 689.738 88.9687 674.652 84.073 659.66C78.2569 641.853 72.2932 624.117 65.6407 606.759C57.7547 586.178 49.3673 565.895 40.0682 546.211C37.819 541.45 38.4215 537.124 41.6703 532.536C42.8834 536.353 41.5142 540.87 44.0892 544.473C44.7709 542.844 45.3289 541.514 46.1904 539.463C46.5392 542.874 46.7935 545.439 47.0697 547.998C47.1569 548.788 47.1403 549.801 48.0364 549.811C48.6549 549.816 48.7882 548.993 49.067 548.419C49.8046 546.916 49.3137 544.478 51.2953 543.702C51.342 547.409 51.0056 551.074 51.9887 554.655C53.9281 553.762 53.2153 551.074 54.5642 549.053C55.1835 553.032 54.9369 556.485 56.3757 560.494C57.4063 556.971 58.1955 554.277 58.9847 551.583C59.6167 555.182 59.6886 558.693 59.834 562.202C59.8626 562.923 59.5784 564.085 60.4577 564.248C61.3934 564.42 61.5819 563.38 61.8142 562.405C62.4066 559.905 63.1107 557.447 63.7673 554.973C63.9349 559.785 63.6485 564.519 65.2536 570.046C66.347 566.103 67.1713 563.136 68.1713 559.53C69.2484 564.159 68.1751 568.551 69.7482 572.841C71.9955 569.923 71.2665 565.763 73.5696 562.274C73.6956 566.852 73.791 570.63 73.9161 574.408C73.9366 575.066 73.9213 575.893 74.5979 576.085C75.4653 576.33 75.6217 575.478 75.8223 574.661C76.3549 572.506 76.931 570.369 77.4932 568.224C78.4516 573.071 78.1673 577.952 79.4679 582.855C81.4397 580.569 81.2282 577.594 82.0914 574.773C83.1221 578.59 81.9637 582.663 84.161 586.34C84.9093 584.223 85.4849 582.594 86.3637 580.11C86.573 584.21 86.9907 587.346 88.3141 590.826C89.0259 588.613 89.5479 586.995 90.1359 585.168C92.0229 589.405 90.8482 594.375 93.2478 598.607C93.6128 597.565 93.7658 597.22 93.8577 596.85C94.131 595.767 93.5281 593.805 94.7935 593.773C96.2324 593.738 95.378 595.702 95.6914 596.72C96.2087 598.394 95.5761 600.694 97.3815 601.639C98.4296 601.067 97.7724 598.688 99.5272 598.842C99.9855 601.192 99.95 603.865 101.713 605.898C103.614 602.296 103.626 598.323 103.879 594.096C106.576 596.602 107.015 600.708 109.464 603.231C109.736 600.441 108.368 598.781 107.695 596.831C100.454 575.834 89.9528 557.96 75.6293 543.811C71.0778 539.316 65.5957 535.743 66.0811 526.766C66.0954 526.496 66.1116 526.229 66.1375 525.744C68.1479 528.832 69.1036 532.712 71.673 535.652C72.5104 532.122 70.8173 529.42 70.667 526.068C73.428 528.6 73.8141 533.222 77.0323 535.345C76.682 532.369 76.3892 529.867 76.0803 527.23C78.5433 530.114 79.336 534.492 82.2241 536.773C83.0225 535.008 81.9231 533.262 82.7489 531.763C84.5115 533.51 84.8029 536.752 86.9597 537.736C87.9232 536.557 86.6253 534.838 87.7383 533.84C89.141 535.267 89.7353 538.544 91.4873 538.372C93.1539 538.207 90.8319 535.452 91.9691 533.945C93.4811 536.309 94.8811 538.584 96.3706 540.765C96.6831 541.222 97.3895 541.653 97.7818 541.517C98.3852 541.308 98.0873 540.398 98.0906 539.738C98.0937 539.012 97.2455 538.35 97.9393 537.575C99.8725 538.601 100.274 542.186 102.609 542.512C103.333 541.047 101.684 540.036 102.68 538.646C104.368 539.893 105.228 542.748 107.513 543.192C107.738 540.289 106.311 537.958 106.035 534.891C107.562 536.016 108.73 536.876 110.028 537.831C110.07 536 109.114 535.369 108.433 534.559C97.9938 522.087 86.0892 513.244 72.1004 509.008C60.2193 505.411 48.4876 505.301 36.7897 508.832C34.4391 509.543 36.5953 512.479 36.6594 509.733C36.7347 506.582 38.4882 505.096 40.7188 506.518C42.621 507.73 44.296 509.891 46.6227 508.953C47.0816 507.22 45.1115 506.921 45.4882 505.339C49.0667 506.685 50.7917 506.222 50.6629 503.949C52.409 503.927 53.5665 506.882 55.7752 505.787C55.1247 504.296 54.5744 503.033 53.8084 501.273C56.092 502.026 57.47 504.48 59.8482 504.014C59.2069 502.659 58.7143 501.622 58.1416 500.414C60.4474 500.663 61.7966 503.276 63.8098 503.059C64.3234 501.235 62.06 501.007 62.8534 499.324C63.9513 499.602 65.5588 501.386 65.7343 500.746C67.0193 496.07 68.7679 501.537 70.0068 500.54C70.8776 498.691 69.1788 497.162 69.639 495.406C71.4817 496.215 72.1923 499.081 74.2353 498.94C74.8392 496.876 73.2706 495.306 73.6375 493.093C75.6686 495.166 76.8919 498.017 79.3064 498.689C80.0422 496.541 77.6938 495.573 78.4798 493.376C79.7649 494.855 78.2863 492.443 79.531 493.741C79.9088 494.135 83.2828 498.37 83.6096 498.165C84.3071 497.723 84.0533 496.696 83.8007 495.971C83.2456 494.387 82.5846 492.86 81.7591 490.784C84.8906 493.013 86.2749 497.102 89.6508 498.427C89.4464 495.278 87.353 493.423 87.3485 490.464C89.7027 492.868 91.343 496.056 94.1472 497.747C94.1846 494.294 92.3335 492.018 91.4504 488.837C94.4018 490.964 95.7135 495.147 99.377 496.15C98.1963 492.985 97.2382 490.411 96.2801 487.838C98.9114 490.113 101.12 492.858 104.265 495.261C103.493 492.503 102.902 490.383 102.158 487.728C105.165 490.136 107.063 493.434 110.164 495.224C110.283 492.397 108.216 490.886 108.427 488.463C110.658 489.855 111.777 493.321 114.524 493.82C114.635 491.731 112.969 490.615 113.26 488.458C114.076 489.213 114.649 489.893 115.318 490.328C116.401 491.033 117.245 493.57 118.515 492.245C119.588 491.123 117.668 489.743 117.595 488.29C117.588 488.138 117.828 487.973 118.05 487.688C120.332 490.213 122.752 492.541 125.364 494.413C126.374 492.679 123.94 491.605 125.284 489.99C127.04 490.723 128.258 493.121 130.336 493.215C130.809 491.766 129.175 490.843 129.752 489.44C131.585 489.542 132.65 492.379 134.808 491.926C134.31 487.952 132.353 482.847 137.765 491.83C139.345 491.426 139.86 488.767 138.942 486.061C138.31 484.202 137.06 482.775 135.585 482.014C129.162 478.695 122.553 476.428 115.776 474.682C97.2614 469.911 79.1199 470.487 61.3504 478.231C60.2788 478.698 59.1398 479.322 58.0322 477.915C56.7841 476.33 55.4151 474.902 53.4181 472.635C56.6717 473.987 59.0614 474.979 61.8407 476.13C60.8983 472.537 58.1051 471.866 56.8827 468.945C59.7064 468.926 61.7445 471.781 64.2886 470.982C64.2617 468.698 62.095 468.583 61.8568 466.632C64.0891 465.066 66.2448 468.902 68.6655 466.947C67.644 465.637 66.7747 464.518 65.9123 463.409C68.063 462.901 69.8691 465.602 72.3298 464.488C71.3537 463.037 70.541 461.832 69.5035 460.29C72.0327 460.909 71.4737 457.578 73.5176 458.075C73.9616 456.586 75.1191 460.019 75.375 458.986C77.3268 457.655 80.375 463.451 81.4736 457.352C84.1565 458.914 86.0723 455.48 88.5663 455.741C89.1613 455.805 89.9853 456.108 90.2774 455.19C90.5643 454.287 90.0257 453.602 89.3684 453.288C88.6224 452.932 88.3542 452.338 88.5092 451.366C89.2451 450.785 89.9788 451.415 90.715 451.445C91.5692 451.479 92.4468 451.77 93.2668 451.129C92.8388 449.925 91.9888 449.716 91.1311 449.491C77.5728 445.946 61.7014 442.66 49.1787 450.296C46.9049 451.684 47.8515 455.333 45.7531 453.492C47.7302 452.518 49.9897 454.239 51.6435 452.171C50.4155 450.174 48.2808 450.665 46.9231 448.65C49.0259 447.936 51.3431 449.328 53.1956 446.907C51.6603 446.015 50.4153 445.291 49.1732 444.568C51.1496 443.969 52.9887 443.967 54.8199 443.872C55.3903 443.845 56.2627 444.161 56.3028 442.946C56.3279 442.205 55.7623 441.856 55.2469 441.524C54.7935 441.234 53.9523 441.832 53.8388 440.448C55.398 440.153 56.9224 439.862 58.3534 439.592C58.2966 437.557 56.7095 437.942 56.3464 436.541C58 435.994 61.09 435.207 61.0597 434.941C60.603 431.038 63.2748 432.308 64.4131 431.734C67.043 430.409 63.9595 429.963 64.3256 428.908C68.0465 429.602 68.9981 424.396 71.9478 422.867C70.4739 422.209 69.0001 421.551 67.609 420.932C67.7038 419.465 69.3086 419.955 69.0986 418.199C67.6946 418.535 66.2871 418.671 64.9876 419.212C44.7223 427.626 29.5995 443.535 20.8225 468.529C20.0607 470.694 19.2581 471.219 17.6242 470.2C18.2503 469.133 19.4885 468.816 19.6306 467.365C19.1048 466.213 18.0014 467.556 17.347 466.22C20.7423 465.443 19.1046 460.851 21.1145 459.162C20.4418 458.099 19.405 459.03 18.8549 457.604C19.8933 457.175 21.0412 456.707 21.0908 454.806C20.3133 454.665 19.5537 454.531 18.5923 454.356C19.5708 453.086 20.8379 452.686 21.1392 450.872C20.262 450.703 19.5617 450.57 18.5935 450.386C19.5194 449.201 20.7858 448.774 21.0731 446.895L18.0516 446.958C18.0507 444.973 19.8649 445.291 20.1127 444.032C20.6971 441.068 18.1618 444.022 17.9471 442.251C18.6827 441.461 19.387 440.637 20.1476 439.908C20.5891 439.487 21.2387 438.83 20.5077 438.47C17.6385 437.052 20.5661 436.734 20.713 435.928C20.7757 435.595 20.9479 435.299 21.1301 434.842C20.3691 434.654 19.7554 434.5 18.5447 434.203C21.9906 432.87 20.1751 429.019 21.4494 426.783L22.2593 419.193C22.4613 418.191 23.4194 417.285 22.7106 416.173C21.8939 414.894 20.7844 415.146 19.7126 415.623C16.1166 417.227 13.4449 420.229 11.653 424.454C6.74131 436.021 6.56586 448.664 7.32865 461.434C7.61394 466.194 8.04468 470.974 9.42542 476.21C8.47483 475.565 8.07994 475.355 7.73676 475.053C-11.7991 457.807 -33.0941 448.963 -56.7217 451.263C-58.9471 451.48 -58.9054 451.398 -58.8817 454.168C-58.8776 454.711 -59.3743 455.339 -59.7533 455.761C-60.4481 456.539 -61.5094 456.901 -61.4266 458.669C-59.9272 459.512 -58.0207 458.159 -56.5656 460.39C-55.9509 461.334 -53.1626 458.684 -53.4048 462.736C-52.8765 462.667 -52.3293 462.678 -51.8226 462.508C-50.9893 462.23 -50.1834 461.839 -49.41 461.513C-49.0053 462.995 -50.7327 463.507 -50.0052 464.547C-49.3605 465.471 -48.4128 464.681 -47.6099 464.3C-46.4171 463.731 -45.1936 463.246 -43.9751 462.766C-43.8526 462.719 -43.663 462.938 -43.542 463.01C-43.3438 464.121 -44.8331 464.616 -44.2745 465.607C-42.6295 466.852 -41.5643 464.52 -40.0508 465.254C-40.2068 466.315 -41.6283 467.017 -40.8471 468.045C-40.1557 468.959 -39.2803 467.852 -38.4833 467.535C-37.5855 467.176 -36.9447 465.808 -35.8566 466.153C-35.7484 468.202 -38.1144 468.24 -37.3651 470.861C-35.0647 469.644 -32.7812 468.439 -30.2663 467.111C-30.9281 469.371 -32.7724 470.181 -32.769 472.914C-30.4891 471.671 -28.4257 470.545 -25.8764 469.156C-29.6714 475.796 -29.6728 475.828 -35.1388 475.793C-44.5908 475.732 -53.7882 477.651 -62.8861 480.497C-65.1494 481.205 -67.5287 481.368 -65.3578 486.919C-66.5243 485.385 -66.8779 485.047 -67.1053 484.603C-68.4308 481.998 -70.2482 482.645 -71.6171 483.893C-73.2297 485.365 -71.1749 486.576 -70.8619 487.939C-70.6786 488.74 -69.6542 489.268 -70.3611 490.454C-71.798 489.46 -72.2621 487.413 -73.3953 486.157C-74.1023 485.374 -74.8893 484.812 -75.694 485.734C-76.4262 486.572 -75.8844 487.477 -75.5384 488.344C-74.881 489.996 -73.4446 491.116 -73.4659 493.289C-74.818 491.698 -75.9044 489.857 -77.1022 488.136C-78.2221 486.526 -79.5193 486.965 -80.5404 488.148C-81.827 489.636 -80.1985 490.135 -79.7084 490.979C-78.6894 492.727 -77.1221 494.072 -76.72 497.664C-78.2242 495.468 -79.1868 494.208 -80.0081 492.817C-80.6789 491.682 -81.1797 490.821 -82.5535 490.802C-86.5847 490.743 -89.7308 493.392 -93.0368 495.584C-94.8202 496.764 -96.7076 497.852 -95.3275 501.398C-95.0365 502.146 -95.2666 503.182 -94.3458 503.512C-93.3154 503.879 -92.4113 503.732 -91.7985 502.53C-91.3462 501.648 -91.8188 500.276 -90.9196 499.569C-90.1966 500.096 -90.0298 501.976 -89.0813 501.518C-86.7763 500.413 -84.919 501.161 -82.6284 502.228C-81.4289 502.788 -81.3672 502.763 -81.4719 504.001C-81.538 504.765 -82.2045 505.423 -81.4774 506.655C-78.8698 504.811 -77.4024 501.244 -74.7661 498.774C-74.8084 499.775 -74.8436 500.297 -74.8473 500.823C-74.8555 501.717 -75.7156 502.789 -74.8733 503.45C-73.7856 504.303 -73.5828 502.524 -72.9274 502.041C-71.7977 501.215 -71.573 499.029 -70.0598 498.761C-69.4185 500.431 -70.9034 501.994 -69.6773 503.91C-68.1701 501.671 -66.7982 499.631 -65.3253 497.444C-64.5352 499.736 -66.7185 501.495 -65.2486 503.655C-62.4684 501.181 -61.0489 497.159 -58.3824 494.104C-58.2888 497.467 -60.2055 499.786 -59.6792 503.039C-56.6219 500.522 -55.4613 496.118 -52.5171 492.971C-52.8431 496.758 -54.6963 499.62 -53.9993 503.328C-51.5423 501.326 -50.9815 497.713 -48.7003 496.055C-47.8832 498.643 -49.4512 500.751 -48.8959 503.586C-46.2232 501.221 -45.3646 497.19 -42.7745 494.527C-42.9276 497.807 -44.5868 500.063 -44.0552 503.52C-41.4162 500.994 -40.2786 497.402 -38.1231 494.386C-37.5131 497.283 -39.571 499.636 -38.2855 502.347C-36.0632 500.801 -35.3995 497.284 -33.342 495.515C-32.3875 497.745 -34.8977 499.489 -33.2997 501.548C-31.1669 499.782 -30.5135 496.381 -28.1425 494.034C-28.347 495.798 -28.4991 496.858 -28.5849 497.927C-28.654 498.776 -29.3926 499.88 -28.3354 500.4C-27.4624 500.829 -27.1839 499.492 -26.6121 499.04C-25.4446 498.114 -25.3898 495.567 -23.5948 495.443C-23.2914 497.331 -24.8531 499.411 -23.6273 500.325C-22.0155 501.522 -21.6756 498.45 -20.5115 497.725C-20.2527 497.563 -19.9872 497.419 -19.7296 497.27C-19.224 498.222 -20.4309 499.357 -19.5896 499.944C-18.0811 500.999 -17.7489 498.15 -16.4953 498.114C-15.8389 499.683 -17.9715 500.722 -16.6267 502.497C-14.9315 500.921 -13.2152 499.322 -11.5942 497.817C-10.8005 499.746 -13.2543 500.544 -12.0306 502.572C-10.0092 501.7 -8.74492 499.473 -6.93117 497.852C-6.68052 499.998 -8.31363 501.442 -7.66989 503.392C-5.71393 502.919 -4.56922 500.97 -2.88635 499.984C-2.80296 502.713 -0.952083 502.689 2.66626 499.913C2.46102 502.205 0.192669 506.875 4.93529 503.805C5.38004 503.518 5.97712 504.13 6.06412 504.94C6.17786 505.989 6.02342 506.997 5.04499 507.073C3.75991 507.171 2.45789 507.117 1.16632 507.024C-23.2813 505.302 -44.7715 514.396 -63.3887 533.918C-69.1952 540.006 -74.3927 546.852 -78.9084 554.516C-79.5152 555.547 -80.3008 557.877 -80.1335 557.892C-77.1122 558.164 -79.1994 560.879 -78.748 562.274C-78.287 563.698 -79.0517 565.547 -77.9673 566.82C-75.9403 565.665 -76.0182 562.391 -74.2757 560.918C-73.3444 562.154 -74.518 564.034 -73.193 565.015C-71.6213 563.49 -71.7533 560.42 -70.0912 558.948C-69.2669 560.101 -70.4162 562.255 -68.8701 562.533C-67.512 562.778 -67.8199 560.769 -67.4252 559.804C-66.392 557.268 -65.5694 554.593 -64.5594 551.684C-63.8696 553.759 -64.5923 555.659 -63.6495 557.473C-61.4661 555.944 -61.9152 552.143 -60.0741 550.319C-59.3447 552.003 -60.0457 554.061 -58.5831 555.458C-57.7125 552.607 -56.9123 549.986 -56.0458 547.137C-54.9766 549.075 -55.842 551.281 -54.6319 553.128C-52.1878 549.854 -52.4022 545.139 -50.4983 541.547C-49.7228 544.13 -50.7634 546.793 -49.2238 549.087C-46.8249 546.106 -47.357 541.579 -45.2121 537.656C-45.1147 540.883 -45.0636 543.212 -44.962 545.538C-44.9289 546.303 -45.0384 547.363 -44.1221 547.419C-43.283 547.468 -43.2184 546.508 -43.0714 545.693C-42.4777 542.387 -41.0402 539.383 -40.7063 535.765C-40.4267 538.926 -40.1471 542.087 -39.7731 546.333C-37.0938 542.486 -37.5998 538.095 -35.7054 534.072C-35.6319 536.517 -35.6998 538.137 -35.4955 539.708C-35.3619 540.757 -36.0434 542.529 -34.648 542.725C-33.5693 542.877 -33.6525 541.291 -33.4176 540.26C-32.7999 537.574 -32.1004 534.918 -31.375 532.017C-30.3652 534.661 -31.3707 537.758 -29.5844 540.144C-27.5628 537.676 -28.3861 533.682 -26.4413 531.339C-25.7287 533.177 -26.6352 535.252 -25.4531 537.123C-23.2892 534.933 -24.0122 531.081 -22.4757 528.328C-21.6544 530.425 -22.3844 532.91 -20.6633 534.242C-19.3191 532.282 -19.0248 529.761 -18.1091 527.649C-16.8351 528.835 -18.0302 531.952 -16.2923 532.031C-14.6565 532.108 -14.9804 529.084 -13.985 527.737C-11.7139 533.438 -11.496 526.416 -10.093 526.953C-9.43112 527.933 -10.6193 529.473 -9.11873 530.455C-7.92029 528.332 -6.70552 526.171 -5.29108 523.664C-4.88624 526.006 -6.69736 527.734 -5.0973 529.634C-3.8594 527.368 -2.69043 525.224 -1.4434 522.942C-0.66329 524.766 -1.78002 526.54 -0.735208 528.051C1.24358 527.102 1.2449 523.915 2.95572 522.753C3.9618 523.477 2.37184 525.515 3.91016 525.777C5.03791 525.969 5.39911 524.441 5.9819 523.585C6.79892 522.388 7.09336 520.651 8.42796 519.607C8.38719 521.512 8.42312 525.604 8.38106 527.694C9.46583 527.045 9.92626 522.584 10.7354 522.098C9.32499 524.755 7.98401 524.173 6.46817 525.204C-1.25116 530.455 -8.51159 536.582 -15.3522 543.468C-29.1872 557.398 -41.4938 573.013 -48.9585 593.845C-51.7169 601.542 -53.6044 609.597 -53.9687 618.168C-54.0234 619.444 -53.6873 621.974 -53.5197 621.816C-50.984 619.463 -51.7807 623.22 -51.231 623.978C-50.624 624.82 -50.498 626.235 -49.1901 626.692C-48.8038 624.662 -48.4208 622.66 -47.9975 620.447C-47.0894 621.244 -47.3188 623.166 -46.1306 622.735C-44.9993 622.324 -45.52 620.919 -45.4716 619.91C-45.4067 618.604 -45.4179 617.289 -45.3929 615.927C-44.1873 616.077 -44.3147 618.651 -43.0816 617.795C-42.3076 617.257 -42.5561 615.813 -42.5752 614.731C-42.619 612.372 -42.7084 610.01 -42.8099 606.642C-41.6368 608.597 -41.4559 610.216 -39.9095 610.388C-39.8742 608.126 -39.8406 605.927 -39.8078 603.864C-38.2439 603.822 -38.4727 606.02 -37.3049 606.499C-36.1885 603.885 -37.7716 601.029 -36.8707 598.357C-35.9165 599.585 -35.8519 601.386 -34.1911 601.926L-34.5061 591.393C-32.4843 592.231 -32.9277 595.649 -30.8305 596.012C-29.8769 592.071 -31.9838 588.372 -31.4607 584.208C-29.9015 586.914 -29.3722 590.006 -27.1419 591.849C-26.1371 587.932 -28.2948 584.494 -27.767 580.431C-26.7086 582.754 -25.8265 584.591 -25.0344 586.486C-24.7562 587.147 -24.4919 587.809 -23.8882 587.657C-22.9941 587.433 -23.2136 586.441 -23.3378 585.67C-23.7873 582.855 -24.2765 580.05 -24.8119 576.889C-22.6206 578.205 -23.0971 581.89 -20.5302 582.506C-20.3619 579.125 -21.7324 576 -21.3811 572.656C-19.4081 573.51 -19.6622 576.775 -17.5548 577.902C-17.2367 574.596 -17.7381 571.568 -18.4128 567.748C-17.0867 569.911 -16.1609 571.421 -15.1292 573.104C-13.8246 569.48 -16.113 566.495 -15.7752 563.2C-13.9496 564.029 -13.9929 566.849 -12.1904 567.707C-11.4056 565.447 -12.6188 562.891 -11.7345 560.602C-11.3244 561.027 -11.0437 561.25 -10.8294 561.551C-10.2671 562.33 -9.95507 563.773 -8.90465 563.414C-7.72182 563.008 -8.56216 561.558 -8.33637 560.63C-7.87532 558.729 -5.70874 558.614 -5.56837 556.356C-5.30611 556.47 -4.88307 556.494 -4.80354 556.715C-3.67684 559.834 -3.43023 557.643 -3.18134 556.295C-2.90368 554.788 -2.77116 553.231 -2.526 551.311C-1.67659 552.592 -1.9195 554.41 -0.581158 554.808C0.495564 552.586 -0.511101 549.856 0.591835 547.683C1.45929 548.787 1.09497 551.117 2.54398 550.834C3.68685 550.61 2.99491 548.713 3.38168 547.675C3.71405 546.785 3.43128 545.458 4.44383 545.037C6.17534 548.23 4.35629 550.354 3.31132 552.81C-3.06225 567.822 -7.8027 583.598 -9.94438 600.615C-10.6691 606.382 -11.2305 612.338 -11.128 617.997C-11.0277 623.509 -7.35684 628.113 -3.89841 632.421C-2.69085 629.096 -4.42623 626.286 -4.28095 623.163C-3.70448 623.758 -3.3596 624.083 -3.038 624.447C-2.43681 625.124 -2.1292 626.761 -1.07199 626.02C-0.150824 625.373 -0.816186 624.04 -0.888576 623.016C-1.02134 621.19 -2.07262 619.488 -1.51264 617.129C-0.410901 618.209 -0.193386 620.469 1.52009 620.044C1.40896 615.548 0.554385 611.357 -0.992825 607.221C1.17294 606.938 1.05531 611.099 3.38109 610.23C2.96435 607.493 2.55589 604.808 2.07577 601.671C2.83911 602.463 3.23358 602.942 3.68393 603.318C4.27552 603.812 4.49387 605.372 5.37803 604.832C6.44401 604.18 5.75813 602.906 5.48467 601.945C4.85975 599.759 4.04962 597.639 3.88988 595.04C5.71073 596.41 6.22479 599.058 8.22235 600.09C8.73017 597.385 7.66268 595.308 7.16627 593.154C6.6359 590.858 5.90542 588.633 5.25861 586.377L5.65701 586.07C7.26125 588.187 8.86552 590.305 10.9223 593.02C10.5675 587.085 8.31297 582.75 7.20035 577.716C9.9383 580.343 11.2797 584.364 14.3711 586.403C13.9909 581.458 11.7211 577.712 10.7264 573.074C13.4513 575.003 14.4102 579.017 17.9183 580.544C16.3465 575.686 15.0237 571.602 13.5931 567.178C16.101 569.177 17.0937 572.789 19.8849 574.325C19.5676 569.352 17.1887 565.528 16.1703 560.567C17.8761 562.812 19.2268 564.589 20.5767 566.359C21.0098 566.928 21.3793 567.899 22.1406 567.35C22.9529 566.769 22.344 565.914 22.1487 565.205C21.4273 562.572 20.671 559.952 19.8356 556.996C21.858 557.947 22.2411 561.154 24.6852 560.891C23.9072 557.158 22.159 554.108 21.8191 550.222C23.6322 551.652 24.4804 553.978 26.3041 554.727C27.1901 552.223 25.3086 550.159 25.8737 547.232C30.274 558.25 34.7617 568.625 38.6324 579.344C47.6454 604.286 55.7776 629.663 63.0662 655.424C69.3324 677.574 74.8967 699.968 80.0815 722.5C85.8961 747.776 91.3449 773.131 95.8774 798.745C98.8073 815.308 101.651 831.881 104.408 848.464C105.657 855.972 105.524 856.002 100.453 859.712C99.9058 860.113 99.3931 860.595 98.8622 861.035C86.1463 871.502 72.1202 878.222 57.5261 883.28C56.863 883.508 55.9117 884.183 55.4848 883.129C55.202 882.433 55.4594 881.281 55.6705 880.415C56.1984 878.244 57.4177 876.271 56.7437 873.338C55.2246 874.865 53.9615 876.133 52.7175 877.384C50.4017 873.981 51.8809 869.157 49.122 865.825C48.6801 870.548 47.3013 874.568 47.2354 878.953C47.2215 879.825 46.8814 880.613 46.1857 880.753C45.479 880.896 45.4917 879.885 45.2524 879.36C43.9185 876.398 42.6336 873.399 41.3207 870.423C39.2443 865.719 37.1628 861.019 35.0371 856.218C34.2358 857.112 34.3426 857.76 34.5187 858.418C36.7711 866.955 39.0286 875.487 41.275 884.021C41.7463 885.808 42.6214 887.656 40.1495 888.314C32.7847 890.279 26.2261 894.671 19.7003 899.065C18.4275 899.921 16.6457 900.102 15.8016 902.744C26.7981 902.179 37.5156 904.178 48.1647 904.127C101.869 903.87 155.651 902.94 209.535 902.241C214.928 902.171 220.323 902.096 225.719 902C226.327 901.989 227.123 902.332 227.452 901.434C227.9 900.208 226.988 899.845 226.396 899.294C223.863 896.948 221.42 894.426 218.799 892.255C210.165 885.098 201.419 878.224 190.683 877.922C188.764 877.867 189.402 876.375 189.667 875.076C190.985 868.679 192.342 862.295 193.585 855.868C194.037 853.535 194.795 851.206 194.354 847.375C190.76 856.77 187.579 865.083 184.402 873.391L183.654 873.291C182.57 868.403 181.483 863.515 180.319 858.277C177.8 861.851 179.691 866.889 177.411 870.025C175.656 869.107 174.946 866.527 172.928 866.145C172.71 868.599 173.658 870.362 174.288 872.217C175.627 876.148 175.582 876.404 172.162 875.768C166.606 874.732 161.874 871.147 157.161 867.423C155.378 866.013 154.948 864.537 155.049 862.095C155.436 852.589 155.612 843.06 155.964 833.542C156.487 819.399 156.849 805.224 157.713 791.103C159.118 768.154 160.727 745.207 162.524 722.264C164.14 701.61 165.951 680.959 168.001 660.336C170.01 640.107 172.353 619.92 175.119 599.807C177.045 585.79 178.753 571.697 181.022 557.755C183.054 545.278 185.033 532.773 187.198 520.316C191.042 498.194 195.206 476.166 199.986 454.32C203.52 438.159 207.728 422.254 211.664 406.226C217.9 380.828 226.019 356.389 234.096 331.883C235.593 327.343 237.063 322.572 239.609 318.586C240.859 320.192 239.382 322.853 240.896 323.289C242.353 323.708 242.903 321.111 244.005 320.076C245.276 318.884 245.65 316.265 247.925 315.973C247.002 323.307 244.83 330.029 245.552 337.882C249.64 333.083 252.276 327.393 255.458 322.193C253.712 330.988 251.196 339.516 250.896 349.746C254.443 344.929 256.519 340.182 259.311 336.059C258.169 344.098 255.975 351.775 255.87 361.13C260.56 354.549 263.674 347.921 267.31 341.731C265.157 351.553 262.695 361.149 262.26 371.454C266.601 365.811 269.588 358.948 273.286 352.732C271.22 362.449 268.719 371.918 267.931 383.18C272.79 376.468 275.81 369.45 279.651 363.118C277.95 372.825 275.676 382.241 274.924 392.158C280.041 385.612 283.447 377.579 287.445 370.057C285.376 380.403 282.945 390.57 282.892 401.407C286.97 396.286 289.52 389.935 292.855 384.218C291.42 394.602 288.774 404.641 289.188 415.358C292.895 410.806 294.988 404.923 298.085 399.93C296.666 408.164 294.7 416.129 294.633 425.355C297.898 421.638 299.536 417.072 302.455 413.779C301.078 420.488 300.674 427.253 300.703 434.948C304.056 430.986 305.54 426.127 308.257 422.556C306.962 430.844 306.125 439.058 305.919 447.372C305.889 448.576 305.046 450.528 306.522 450.977C307.753 451.351 307.977 449.271 308.528 448.221C309.955 445.496 311.24 442.646 312.581 439.845C312.972 441.232 312.956 442.339 312.771 443.397C312.029 447.607 311.761 451.896 311.683 456.195C311.652 457.897 310.964 460.662 312.173 461.128C313.818 461.762 314.107 458.713 315.049 457.357C316.076 455.878 316.8 454.061 318.159 451.419C318.049 457.555 317.263 462.504 317.951 467.46C318.097 468.513 317.968 469.965 319.068 470.178C319.886 470.336 320.235 469.113 320.649 468.36C324.073 462.129 326.682 455.33 328.607 448.151C329.532 444.704 330.429 440.936 327.706 437.673C327.16 437.019 327.043 435.644 326.932 434.57C325.137 417.06 320.608 400.532 314.911 384.496C306.949 362.089 296.827 341.296 284.598 322.155C282.339 318.619 282.266 311.632 284.523 307.234C287.508 312.579 285.513 319.864 289.256 325.207C290.997 319.666 290.967 314.039 292.074 308.737C292.261 316.417 293.72 323.636 296.575 330.513C297.056 326.776 297.54 323.04 298.186 318.016C299.848 324.652 300.235 330.496 302.439 336.247C304.172 333.091 303.627 329.708 305.03 326.603C305.703 329.808 306.272 332.479 306.815 335.157C306.984 335.989 307.097 336.842 307.977 336.838C308.712 336.835 308.708 336.043 308.92 335.423C309.544 333.598 310.222 331.805 310.879 329.998C311.622 333.765 311.659 337.386 311.818 341C311.862 342.002 311.633 343.532 312.737 343.782C313.771 344.015 314.107 342.522 314.518 341.652C315.752 339.036 316.836 336.306 317.981 333.619L318.652 333.836L319.05 351.309C322.839 346.616 323.496 340.663 326.326 335.129C326.269 336.899 326.325 337.465 326.222 337.981C325.005 344.144 325.38 350.452 325.305 356.717C325.293 357.669 325.116 358.906 326.131 359.115C327.334 359.36 326.913 357.79 327.259 357.064C328.947 353.52 329.883 349.543 331.386 345.739C330.942 352.111 330.841 358.463 331.17 364.815C331.22 365.762 330.598 367.325 331.939 367.515C332.796 367.637 332.984 366.424 333.299 365.498C334.904 360.8 336.598 356.15 338.602 350.531C338.841 355.816 338.569 359.935 338.268 364.079C337.975 368.164 337.861 372.314 338.513 377.337C341.816 371.187 342.926 364.78 345.405 359.111C345.087 367.443 344.561 375.725 345.764 384.024C348.638 377.602 350.775 370.891 352.655 363.985C353.044 372.957 351.355 381.818 352.89 390.796C356.334 384.135 357.905 376.467 360.518 369.361C359.739 378.897 359.467 388.349 360.673 398.647C363.649 392.942 364.529 387.006 366.698 381.867C367.126 389.817 367.271 397.612 367.499 405.402C367.527 406.335 367.033 407.94 368.325 408.089C369.186 408.189 369.337 406.924 369.609 405.986C370.859 401.699 372.184 397.452 373.483 393.186C373.846 394.825 373.823 396.334 373.711 397.833C373.353 402.705 373.546 407.578 373.741 412.453C373.776 413.298 373.793 414.244 374.588 414.487C375.548 414.78 375.488 413.654 375.745 412.953C376.78 410.132 377.841 407.327 379.236 403.595C379.668 410.195 379.227 415.951 380.902 421.963C383.658 418.143 383.593 413.476 385.818 409.791C386.121 418.723 385.944 427.14 388.405 436.287C389.784 431.637 390.87 427.974 392.13 423.734C392.296 424.937 392.47 425.574 392.454 426.203C392.33 430.851 393.64 435.269 393.865 439.859C393.911 440.814 394.013 441.945 395.054 441.985C395.981 442.021 395.821 440.876 396.063 440.18C396.745 438.213 397.427 436.249 398.196 434.036C399.644 437.749 399.387 441.643 400.253 445.2C400.548 446.415 400.37 448.444 401.78 448.476C403.107 448.505 403.201 446.503 403.517 445.308C404.526 441.492 405.676 437.722 405.993 433.589C408.286 434.79 406.96 437.836 408.437 439.709C409.428 437.467 409.146 435.391 408.654 433.733C407.11 428.526 407.037 422.983 405.442 417.676C400.223 400.298 392.759 384.714 383.541 370.379C364.933 341.438 341.504 320.085 316.326 301.591C302.957 291.774 292.196 276.396 277.855 269.266C274.499 267.597 272.311 266.751 272.748 262.663C272.848 261.735 270.512 266.475 271.123 265.727C272.969 267.055 273.433 284.356 276.058 284.935C276.006 280.316 276.436 273.793 275.991 268.911C279.535 274.042 280.346 281.733 285.037 285.081C285.003 280.887 284.073 277.516 283.396 273.969C286.973 278.281 289.468 283.948 294.126 287.43C294.349 282.266 292 278.174 291.989 272.53C295.06 279.216 298.883 283.658 302.729 288.283C301.372 284.173 300.284 280.044 299.868 275.365C304.283 279.049 306.024 285.712 310.715 289.02C310.951 285.112 309.075 282.19 308.787 278.365C311.689 281.428 313.152 285.767 316.464 287.803C317.334 283.776 314.214 280.366 316.076 276.046C317.905 280.498 319.552 284.536 321.226 288.556C321.636 289.545 322.142 290.956 323.032 290.734C324.27 290.426 324.12 288.555 323.886 287.565C323.007 283.847 324.072 280.532 324.575 276.875C326.017 277.901 326.185 279.549 326.458 280.942C327.214 284.823 328.843 288.11 330.472 291.438C330.844 292.201 331.095 293.008 331.872 292.814C332.749 292.593 332.578 291.545 332.565 290.77C332.474 286.015 332.36 281.258 332.221 276.499C332.175 274.873 330.549 273.419 331.978 271.196C334.013 280.819 336.836 289.624 341.154 298.211C342.412 292.678 340.775 287.453 341.625 281.773C343.8 288.171 345.589 293.878 348.188 299.102C348.678 300.089 348.582 302.087 349.88 301.675C351.092 301.289 350.433 299.527 350.422 298.394C350.354 292.518 350.349 286.637 349.622 280.751C352.669 289.255 355.128 297.97 359.509 305.708C359.637 298.201 359.801 290.742 358.417 283.297C361.921 291.899 364.077 301.259 369.027 310.215C369.542 301.477 367.826 294.053 368.204 285.337C371.43 294.892 373.554 303.713 378.093 311.025C378.476 303.281 377.98 295.725 377.369 288.117C380.767 296.537 383.364 305.363 388.299 313.788C388.615 305.921 387.879 299.315 387.346 292.69C391.076 301.424 393.879 310.59 399.04 319.19C399.789 312.197 398.004 306.402 398.314 300.398C400.875 307.482 403.265 314.619 407.096 321.476C408.077 316.489 406.981 312.048 407.54 307.217C410.424 312.951 412.201 319.043 416.32 324.181C416.3 318.59 416.169 313.99 415.465 308.322C416.554 310.625 417.244 311.897 417.782 313.262C420.101 319.15 422.722 324.79 425.987 329.931C426.387 330.557 426.515 331.621 427.375 331.305C428.5 330.893 427.908 329.751 427.89 328.855C427.831 325.757 426.977 322.692 427.387 318.99C430.167 324.706 432.394 330.19 436.591 334.943L436.365 323.857C438.81 327.786 440.948 331.3 443.167 334.723C443.689 335.525 444.296 336.795 445.27 336.36C446.406 335.851 445.848 334.389 445.727 333.421C445.044 327.876 444.255 322.35 443.485 316.682C445.574 317.746 446.677 320.353 448.899 320.795C444.72 314.797 440.616 308.811 435.793 303.561C424.567 291.348 412.688 280.339 399.671 271.534C387.249 263.131 374.059 256.66 360.478 252.167C345.368 247.167 329.562 244.581 314.164 241.917C306.058 240.513 297.954 239.111 289.852 237.712C285.801 237.013 281.751 236.31 277.7 235.611C275.691 235.262 268.422 235.507 267.07 233.773C271.588 239.521 277.486 243.474 283.735 244.943C281.959 241.123 280.179 237.302 278.403 233.482C282.745 236.114 287.087 238.747 291.432 241.381C291.139 237.435 289.746 233.622 287.558 230.787C291.855 234.869 296.744 237.921 301.891 239.737C299.747 235.464 297.601 231.19 295.458 226.918C299.898 231.075 304.768 234.479 309.896 237.009L303.847 225.395C308.509 228.57 313.17 231.746 317.831 234.921L313.483 224.89C316.003 227.408 319.057 229.039 322.219 229.556L320.48 222.14C323.195 225.596 326.409 228.411 329.909 230.4L327.425 217.331C330.637 221.71 334.393 225.437 338.507 228.326C337.512 222.294 335.974 216.402 333.936 210.802C338.179 217.649 343.214 223.693 348.831 228.667C347.466 224.16 346.097 219.654 344.731 215.147C349.144 220.005 353.556 224.863 357.968 229.721C356.013 222.984 354.058 216.247 352.101 209.509C356.686 216.526 361.905 222.872 367.616 228.377C366.328 221.955 364.422 215.729 361.96 209.878C366.848 215.277 371.735 220.671 376.623 226.07C374.707 219.423 372.789 212.771 370.873 206.121C376.088 212.642 381.302 219.159 386.514 225.68C384.552 217.443 382.002 209.43 378.909 201.767C384.212 209.457 390.049 216.549 396.326 222.925C394.705 215.152 392.109 207.701 388.672 200.941C394.138 209.673 400.724 217.265 408.083 223.315C406.235 217.764 404.386 212.212 402.537 206.661C406.792 212.689 411.591 218.096 416.806 222.735L413.472 209.342C417.155 214.209 421.443 218.333 426.122 221.505L421.707 208.177C426.953 214.294 432.704 219.703 438.834 224.278L435.26 212.235C439.029 216.595 443.32 220.225 447.933 222.956L445.369 212.87C448.712 216.364 452.541 219.098 456.622 220.897C455.708 217.708 454.795 214.516 453.886 211.326C457.429 215.112 461.47 218.142 465.788 220.242C464.966 214.983 463.158 209.974 460.558 205.745C462.368 205.732 464.181 205.718 465.991 205.705C428.506 183.061 385.974 174.476 345.083 181.286C335.497 182.881 324.191 184.576 317.566 175.484C323.076 177.579 328.589 179.679 334.099 181.775C334.095 181.767 334.09 181.762 334.087 181.754C331.06 176.938 327.521 172.652 323.597 169.053L323.582 169.031ZM190.416 203.345C187.505 207.457 184.874 211.995 181.582 215.522C179.437 217.822 176.722 215.385 173.748 214.071C179.84 210.449 185.283 207.27 190.416 203.345ZM168.164 312.186C170.475 305.214 173.206 298.6 175.325 291.577C176 300.061 176.269 308.404 168.164 312.186Z" fill="#891F1B" fill-opacity="0.1"/>
</svg>
