<svg width="204" height="204" viewBox="0 0 204 204" fill="none" xmlns="http://www.w3.org/2000/svg">
<mask id="mask0_311_1359" style="mask-type:alpha" maskUnits="userSpaceOnUse" x="-1" y="0" width="205" height="204">
<rect x="0.667969" y="0.000488281" width="202.516" height="202.516" transform="rotate(0.189159 0.667969 0.000488281)" fill="#EF5423"/>
</mask>
<g mask="url(#mask0_311_1359)">
<path d="M153.945 107.902C158.913 107.902 163.221 111.335 164.33 116.178L164.51 116.963C165.205 119.997 167.43 122.402 170.184 123.852C173.038 125.359 176.348 126.088 179.406 125.056L179.902 124.888C184.57 123.313 189.702 125.238 192.182 129.494L193.606 131.938C196.107 136.232 195.057 141.714 191.146 144.78L189.919 145.741C187.721 147.464 186.784 150.281 186.784 153.074C186.784 155.873 187.708 158.697 189.895 160.444L191.054 161.371C194.9 164.445 195.917 169.871 193.444 174.128L191.955 176.692C189.48 180.954 184.34 182.876 179.676 181.282L179.144 181.101C176.112 180.065 172.809 180.744 170.072 182.41C167.418 184.022 164.962 186.23 164.27 189.257L164.007 190.403C162.956 194.994 158.872 198.249 154.162 198.249L151.676 198.249C146.966 198.249 142.882 194.994 141.831 190.403L141.568 189.257C140.876 186.23 138.42 184.022 135.766 182.41C133.028 180.745 129.726 180.065 126.694 181.101L126.16 181.283C121.497 182.876 116.359 180.955 113.884 176.694L112.444 174.214C109.948 169.917 111.002 164.439 114.912 161.373L116.141 160.41C118.34 158.686 119.278 155.868 119.278 153.074C119.278 150.276 118.355 147.454 116.169 145.707L115.012 144.782C111.165 141.708 110.152 136.279 112.63 132.024L114.122 129.464C116.6 125.21 121.702 123.252 126.39 124.757L126.91 124.924C129.956 125.901 133.216 125.118 136.102 123.74C138.886 122.414 141.077 120.014 141.766 117.009L141.956 116.178C143.065 111.335 147.373 107.902 152.341 107.902L153.945 107.902ZM153.047 136.456C148.384 136.456 144.445 138.061 141.231 141.271C138.018 144.481 136.411 148.423 136.411 153.096C136.411 157.771 138.017 161.706 141.228 164.901C144.438 168.096 148.38 169.694 153.053 169.694C157.727 169.694 161.661 168.093 164.856 164.89C168.053 161.686 169.651 157.752 169.651 153.09C169.651 148.427 168.049 144.489 164.845 141.276C161.642 138.063 157.709 136.456 153.047 136.456ZM71.7096 6.00048C78.1487 6.00048 83.7066 10.513 85.0292 16.8148C85.9867 21.3767 89.2674 25.0317 93.3952 27.1972C93.5425 27.2745 93.6897 27.3525 93.8365 27.4311C98.2887 29.8149 103.459 31.2499 108.292 29.784C114.686 27.8443 121.635 30.5335 124.999 36.3076L126.739 39.2956C130.195 45.2276 128.938 52.7792 123.748 57.2724L123.537 57.4547C119.907 60.5972 118.353 65.4057 118.353 70.2071C118.353 75.0084 119.907 79.817 123.537 82.9594L123.748 83.1421C128.938 87.6351 130.195 95.1864 126.739 101.118L125.098 103.937C121.668 109.824 114.668 112.619 108.126 110.713C103.333 109.316 98.2389 110.629 93.8365 112.983C93.6894 113.062 93.5421 113.14 93.3944 113.218C89.2676 115.385 85.9867 119.04 85.0292 123.602C83.7066 129.903 78.1487 134.416 71.7096 134.416L66.9335 134.416C60.495 134.416 54.9376 129.904 53.6151 123.603C52.6576 119.04 49.3732 115.389 45.2531 113.208C45.1125 113.134 44.9722 113.059 44.8322 112.983C40.4408 110.615 35.3643 109.316 30.5744 110.712C24.0325 112.618 17.0301 109.824 13.6002 103.937L11.9568 101.115C8.50236 95.1852 9.75866 87.6359 14.9475 83.1441L15.1607 82.9596C18.7906 79.8173 20.3424 75.0081 20.3424 70.2071C20.3424 65.406 18.7906 60.5969 15.1607 57.4546L14.9479 57.2704C9.75883 52.7784 8.50246 45.2287 11.9571 39.2983L13.6993 36.3076C17.0628 30.5335 24.0253 27.8485 30.42 29.7882C35.2383 31.2497 40.4016 29.8231 44.8322 27.4311C44.972 27.3557 45.112 27.2809 45.2524 27.2067C49.3735 25.0275 52.6576 21.3762 53.6151 16.8138C54.9376 10.5126 60.495 6.00048 66.9334 6.00048L71.7096 6.00048ZM69.3221 45.3186C62.3331 45.3186 56.4467 47.7202 51.6629 52.5233C46.8792 57.325 44.4873 63.2196 44.4873 70.2071C44.4873 77.1961 46.8829 83.0914 51.6741 87.8931C56.4654 92.6947 62.348 95.0956 69.3221 95.0956C76.3096 95.0956 82.2041 92.6947 87.0058 87.8931C91.809 83.0914 94.2105 77.1961 94.2105 70.2071C94.2105 63.2196 91.809 57.325 87.0058 52.5233C82.2041 47.7202 76.3096 45.3186 69.3221 45.3186Z" fill="#EF5423"/>
</g>
</svg>
