<svg width="328" height="348" viewBox="0 0 328 348" fill="none" xmlns="http://www.w3.org/2000/svg">
<path d="M68.1025 46.5932C90.5349 5.80023 65.7042 -34.9791 50.4849 -50.2697L213.641 -58.8279C215.834 -56.8535 220.64 -47.2851 222.321 -24.807C224.422 3.29056 195.162 66.8825 230.634 38.0677C259.011 15.0159 249.883 -37.118 241.772 -60.3035L325.538 -64.6973C344.071 61.5789 244.699 89.3577 185.868 115.01C127.037 140.662 152.626 223.943 158.41 262.504C164.193 301.064 138.393 335.013 138.623 339.389C138.852 343.765 126.547 348.172 114.604 347.544C102.661 346.917 38.1809 275.079 10.9157 221.347C-25.3346 149.908 40.0621 97.5843 68.1025 46.5932Z" fill="url(#paint0_linear_1_2924)" fill-opacity="0.7"/>
<defs>
<linearGradient id="paint0_linear_1_2924" x1="157.343" y1="-55.8748" x2="175.673" y2="293.567" gradientUnits="userSpaceOnUse">
<stop stop-color="#EF5423" stop-opacity="0.6"/>
<stop offset="1" stop-color="white" stop-opacity="0.1"/>
</linearGradient>
</defs>
</svg>
