<svg width="136" height="179" viewBox="0 0 136 179" fill="none" xmlns="http://www.w3.org/2000/svg">
<g clip-path="url(#clip0_311_1336)">
<path d="M71.0745 88.3505C69.6112 90.0054 67.0528 90.0054 65.5895 88.3505C44.1897 64.1492 44.1892 27.6161 65.5895 3.41414C67.0528 1.75923 69.6112 1.75923 71.0745 3.41413C92.4743 27.6155 92.4749 64.1486 71.0745 88.3505Z" fill="#EF5423"/>
<path d="M0.955477 118.317C0.819548 116.112 2.62824 114.304 4.8332 114.439C37.0843 116.426 62.9269 142.258 64.9144 174.498C65.0503 176.703 63.2416 178.512 61.0367 178.376C28.7848 176.39 2.94293 150.557 0.955477 118.317Z" fill="#EF5423"/>
<path d="M75.6296 178.376C73.4246 178.511 71.6159 176.703 71.7518 174.498C73.7393 142.258 99.5812 116.425 131.833 114.439C134.038 114.304 135.847 116.112 135.711 118.317C133.723 150.557 107.881 176.39 75.6296 178.376Z" fill="#EF5423"/>
<path d="M0.95547 63.6789C0.819549 61.474 2.62824 59.6653 4.8332 59.801C37.0843 61.7871 62.9269 87.6193 64.9144 119.859C65.0503 122.064 63.2416 123.873 61.0367 123.737C28.7848 121.751 2.94288 95.9191 0.95547 63.6789Z" fill="#EF5423"/>
<path d="M75.6296 123.737C73.4246 123.873 71.6159 122.064 71.7518 119.859C73.7393 87.62 99.5812 61.7871 131.833 59.801C134.038 59.6652 135.847 61.4739 135.711 63.6789C133.723 95.9183 107.881 121.751 75.6296 123.737Z" fill="#EF5423"/>
</g>
<defs>
<clipPath id="clip0_311_1336">
<rect width="135" height="178" fill="white" transform="translate(0.833008 0.5)"/>
</clipPath>
</defs>
</svg>
