<svg width="1920" height="378" viewBox="0 0 1920 378" fill="none" xmlns="http://www.w3.org/2000/svg">
<path d="M333 122C42.2429 214.063 -179.5 179.5 -569 0V377.5H2544.5V122C2076 -36.3021 1886 235 1552 235C1356.32 235 1185 93.9999 950 46.4999C682.239 -7.62204 582.5 42.9999 333 122Z" fill="white"/>
<path d="M362.123 112.97C354.879 115.294 347.507 117.645 340 120.022C346.068 118.067 353.508 115.679 362.123 112.97C595.654 38.0706 697.296 -7.97141 957 44.5221C1144 82.32 1363.32 233.022 1559 233.022C1650.4 233.022 1731.01 212.707 1809.5 186.438C1755.17 214.3 1618.1 261.8 1462.5 247C1357 236.965 1203.86 163.651 1079 113.5C957 64.5 831.5 30.1462 670 44.5221C556.073 54.6632 426.388 92.763 362.123 112.97Z" fill="url(#paint0_linear_315_1428)"/>
<defs>
<linearGradient id="paint0_linear_315_1428" x1="340" y1="138.06" x2="1809.5" y2="138.06" gradientUnits="userSpaceOnUse">
<stop stop-color="#FECE65"/>
<stop offset="0.225969" stop-color="#AF722D"/>
<stop offset="0.461233" stop-color="#FECD64"/>
<stop offset="0.729712" stop-color="#B57A31"/>
<stop offset="1" stop-color="#E7B455"/>
</linearGradient>
</defs>
</svg>
