<svg width="204" height="204" viewBox="0 0 204 204" fill="none" xmlns="http://www.w3.org/2000/svg">
<mask id="mask0_311_1373" style="mask-type:alpha" maskUnits="userSpaceOnUse" x="0" y="0" width="204" height="204">
<rect x="1.35034" y="0.720947" width="202.516" height="202.516" transform="rotate(0.189157 1.35034 0.720947)" fill="#EF5423"/>
</mask>
<g mask="url(#mask0_311_1373)">
<path fill-rule="evenodd" clip-rule="evenodd" d="M110.592 32.6784L107.945 28.9914C106.557 27.0582 104.334 25.8983 101.958 25.8676C99.1004 25.8306 96.4771 27.4273 95.2007 29.9803L91.7336 36.9154C86.8733 46.637 84.389 57.3785 84.484 68.2599L84.9097 117.008C85.0151 129.081 87.0328 141.066 90.8877 152.519L94.6626 163.733C95.7191 166.872 99.0316 168.655 102.227 167.805C104.222 167.275 105.804 165.785 106.604 163.883C107.061 162.797 107.552 161.717 108.072 160.646C114.757 146.863 120.439 132.488 120.639 117.154L121.299 66.6851C121.459 54.5062 117.706 42.5863 110.592 32.6784ZM44.5154 38.9091C45.3286 36.3887 46.2752 33.6318 47.0858 31.289C47.7712 29.3082 49.3876 27.7902 51.4075 27.2302C54.632 26.3364 57.9977 28.0942 59.1065 31.2513L64.8077 47.4842C67.648 55.5712 69.1782 64.06 69.3405 72.6298L70.3564 126.276C70.5706 137.588 68.0809 148.787 63.0944 158.943L59.9258 165.396C58.6494 167.995 56.0057 169.642 53.1099 169.642C50.7048 169.642 48.442 168.503 47.0098 166.571L44.4562 163.126C37.0461 153.129 32.937 141.071 32.7007 128.63L31.6824 75.0053L32.6779 62.8849C33.1133 57.5846 35.2904 52.5774 38.8699 48.6442L39.2874 48.1854C41.7005 45.5337 43.4144 42.3212 44.5154 38.9091ZM143.78 41.6336C144.296 39.5409 146.169 37.0387 148.032 34.5494L148.032 34.5491C148.916 33.3683 149.797 32.1903 150.531 31.0603C151.662 29.3189 153.253 27.7914 155.252 27.2329C158.454 26.3389 161.798 28.0867 162.892 31.2252L168.631 47.6878C171.404 55.6424 172.916 63.9817 173.113 72.4034L174.334 124.695C174.563 134.526 172.654 144.289 168.738 153.308L163.402 165.597C162.335 168.053 159.913 169.643 157.234 169.643C154.727 169.643 152.429 168.248 151.271 166.025L144.994 153.973C139.851 144.098 137.041 133.174 136.781 122.043L136.124 93.9244C135.831 81.366 137.182 68.8231 140.144 56.6155L143.78 41.6336Z" fill="#EF5423"/>
</g>
</svg>
